<?xml version="1.0" encoding="utf-8"?><svg xmlns="http://www.w3.org/2000/svg" xmlns:xlink="http://www.w3.org/1999/xlink"><symbol viewBox="0 0 24 16" id="arrow" xmlns="http://www.w3.org/2000/svg"><path d="M23.707 8.707a1 1 0 000-1.414L17.343.929a1 1 0 10-1.414 1.414L21.586 8l-5.657 5.657a1 1 0 001.414 1.414l6.364-6.364zM0 9h23V7H0v2z"/></symbol><symbol viewBox="0 0 13 22" id="arrow-slider" xmlns="http://www.w3.org/2000/svg"><path d="M11.854 12.032l-8.575 8.961c-.546.57-1.43.57-1.976 0a1.506 1.506 0 010-2.063L8.891 11 1.304 3.07a1.507 1.507 0 010-2.063c.545-.57 1.43-.57 1.975 0l8.575 8.961c.273.285.409.659.409 1.032s-.136.747-.41 1.032z"/></symbol><symbol viewBox="0 0 219 202" id="bg" xmlns="http://www.w3.org/2000/svg"><path opacity=".6" d="M1.749 111.184L46.21 12.142M1.749 111.184l61.96 89.147m-61.96-89.147l48.373-4.498m-3.911-94.544L155.857 1.948M46.211 12.142L74.647 51.68m81.21-49.732l61.96 89.146m-61.96-89.146L135.198 46.05m82.619 45.044l-44.462 99.042m44.462-99.042l-48.374 4.498M63.708 200.33l109.647-10.195M63.708 200.331l20.66-44.102m88.987 33.907l-28.436-39.537m-94.797-43.913L74.647 51.68m-24.525 55.006l34.246 49.543m-9.721-104.55l60.551-5.63m0 0l34.245 49.543m0 0l-24.524 55.007m-60.551 5.63l60.551-5.63"/></symbol><symbol viewBox="0 0 21 16" id="burger" xmlns="http://www.w3.org/2000/svg"><path d="M0 .781h21v1.313H0zm0 6.563h21v1.313H0zm0 6.562h21v1.313H0z"/></symbol><symbol viewBox="0 0 17 13" id="car" xmlns="http://www.w3.org/2000/svg"><path d="M1.001 3.998c.038-.126.173-.224.286-.224h1.462c.112 0 .247.098.285.224.037.123.065.233.083.337l.977-3.076c.161-.507.588-.848 1.061-.848h7.47c.473 0 .9.34 1.061.848l.977 3.076c.018-.103.046-.214.083-.337.038-.126.173-.224.286-.224h1.462c.112 0 .247.098.285.224.148.49.148.772 0 1.262-.038.126-.173.224-.285.224h-1.467l.023.07c.298.112.513.432.513.809v5.638c0 .226-.161.41-.36.41h-1.814c-.199 0-.36-.184-.36-.41v-1.997H4.75v1.997c0 .226-.161.41-.36.41H2.578c-.2 0-.36-.184-.36-.41V6.363c0-.377.215-.697.513-.81l.022-.069H1.286c-.112 0-.247-.098-.285-.224-.148-.49-.148-.771 0-1.262zM12.487 1.92H5.294l-1.14 3.59h9.472l-1.14-3.59zm-.2 6.117h1.516c.326 0 .59-.3.59-.67 0-.371-.264-.672-.59-.672h-1.517c-.325 0-.59.3-.59.671 0 .37.265.67.59.67zm-8.31 0h1.517c.326 0 .59-.3.59-.67 0-.371-.264-.672-.59-.672H3.977c-.325 0-.59.3-.59.671 0 .37.265.67.59.67z"/></symbol><symbol viewBox="0 0 14 14" id="close-menu" xmlns="http://www.w3.org/2000/svg"><path d="M13 1L1 13M1 1l12 12"/></symbol><symbol viewBox="0 0 32 32" id="cross" xmlns="http://www.w3.org/2000/svg"><path d="M28.71 4.71l-1.42-1.42L16 14.59 4.71 3.29 3.29 4.71 14.59 16 3.29 27.29l1.42 1.42L16 17.41l11.29 11.3 1.42-1.42L17.41 16l11.3-11.29z"/></symbol><symbol viewBox="0 0 432 471" id="help-bg" xmlns="http://www.w3.org/2000/svg"><path d="M101.981 86.846L280.295 55.66l118.628 139.263-67.305 184.92-55.603 10.627-63.186 12.076-63.186 12.077L34.675 271.766l22.171-60.915 22.172-60.915 22.963-63.09z"/></symbol><symbol viewBox="0 0 459 349" id="help-main-bg" xmlns="http://www.w3.org/2000/svg"><path fill-rule="evenodd" clip-rule="evenodd" d="M22.31 337.4L6.316 313.614l13.016-25.997 28.626-1.448 15.994 23.786-13.015 25.998L22.31 337.4z"/><path d="M397.165 25.374L414.681 1.79m-17.516 23.583l11.183 27.164m-11.183-27.164l13.045 1.628m4.471-25.211l29.568 3.69m-29.568-3.69l5.212 12.103m24.356-8.413l11.182 27.164M444.249 5.481l-8.027 10.45m19.209 16.714l-17.516 23.583m17.516-23.583l-13.045-1.628m-34.038 21.521l29.567 3.69m-29.567-3.69l8.027-10.45m21.54 14.14l-5.212-12.103M410.21 27.002l9.683-13.108m-9.683 13.108l6.165 15.085m3.518-28.193l16.329 2.038m0 0l6.164 15.085m0 0l-9.683 13.108m-16.328-2.038l16.328 2.038"/></symbol><symbol viewBox="0 0 48 50" id="help-main-sm-bg" xmlns="http://www.w3.org/2000/svg"><path fill-rule="evenodd" clip-rule="evenodd" d="M15.129 42.32L4.283 26.192l8.826-17.63 19.413-.98L43.367 23.71l-8.826 17.63-19.412.98z"/></symbol><symbol viewBox="0 0 80 100" id="logo" xmlns="http://www.w3.org/2000/svg"><circle cx="40" cy="40" r="40"/><path d="M56.177 28.238a20.163 20.163 0 00-1.89-2.234l-.144-.147a20.008 20.008 0 00-7.68-4.79v26.236A6.698 6.698 0 0139.765 54h-3.993v5.554c1.39.297 2.807.446 4.228.446a20.002 20.002 0 0019.94-21.575 20 20 0 00-3.764-10.188v.001zM40 20a20.003 20.003 0 00-16.176 31.765A20.3 20.3 0 0025.718 54l.14.145a20.024 20.024 0 007.678 4.793v-26.24a6.698 6.698 0 016.699-6.695h3.992v-5.554A20.184 20.184 0 0040.001 20z"/><circle cx="40" cy="94" r="6"/></symbol><symbol viewBox="0 0 83 70" id="logo-footer" xmlns="http://www.w3.org/2000/svg"><g clip-path="url(#lclip0)"><path fill-rule="evenodd" clip-rule="evenodd" d="M0 66.39V46.992c0-.608.49-1.1 1.094-1.1h10.664c.604 0 1.094.492 1.094 1.1v.275c0 .608-.49 1.1-1.094 1.1H2.734v6.604h7.102l.126.027c2.017.43 3.507 1.368 4.446 2.647.934 1.273 1.243 2.78 1.085 4.205-.31 2.782-2.467 5.51-5.687 5.773l-.05.004H1.095A1.097 1.097 0 010 66.526v-.135zm2.734-1.24v-7.704h6.84c1.465.336 2.349.98 2.854 1.668.522.713.717 1.58.62 2.46-.202 1.81-1.578 3.403-3.395 3.576H2.734z"/><path d="M20.18 45.89c-.603 0-1.093.493-1.093 1.101v.275c0 .608.49 1.1 1.094 1.1h10.664c.604 0 1.094-.492 1.094-1.1v-.275c0-.608-.49-1.1-1.094-1.1H20.18zm9.298 11.556h-8.203v7.429h9.57c.604 0 1.094.493 1.094 1.1v.276c0 .607-.49 1.1-1.094 1.1H21c-.145 0-.283-.028-.41-.08-.127.052-.265.08-.41.08h-.274a1.097 1.097 0 01-1.093-1.1V56.07c0-.608.49-1.101 1.093-1.101h9.57c.605 0 1.094.493 1.094 1.1v.276c0 .608-.49 1.1-1.093 1.1zm5.742-10.317c0-.684.55-1.238 1.23-1.238h8.51l.033.001c3.297.18 5.325 3.023 5.569 5.805.125 1.425-.195 2.932-1.097 4.2-.91 1.28-2.35 2.226-4.292 2.625l-.122.025h-7.234v7.704c0 .607-.49 1.1-1.093 1.1h-.274a1.097 1.097 0 01-1.094-1.1v-9.08c0-.608.49-1.1 1.094-1.1h8.347c1.34-.3 2.173-.921 2.667-1.615.517-.727.726-1.628.646-2.541-.165-1.885-1.472-3.436-3.22-3.548h-8.44c-.68 0-1.23-.554-1.23-1.238zm20.016-1.239c-.604 0-1.094.493-1.094 1.101v.275c0 .608.49 1.1 1.094 1.1H65.9c.604 0 1.093-.492 1.093-1.1v-.275c0-.608-.49-1.1-1.093-1.1H55.236zm9.296 11.556H56.33v7.429h9.57c.605 0 1.094.493 1.094 1.1v.276c0 .607-.49 1.1-1.093 1.1h-9.844c-.145 0-.284-.028-.41-.08-.127.052-.265.08-.41.08h-.274a1.097 1.097 0 01-1.094-1.1V56.07c0-.608.49-1.101 1.094-1.101h9.57c.605 0 1.094.493 1.094 1.1v.276c0 .608-.49 1.1-1.094 1.1zm8.204 8.804V48.368h9.57c.604 0 1.094-.493 1.094-1.1v-.276c0-.608-.49-1.1-1.094-1.1H71.368c-.604 0-1.093.492-1.093 1.1v19.26c0 .607.49 1.1 1.093 1.1h.274c.604 0 1.094-.493 1.094-1.1z"/><g clip-path="url(#lclip1)"><path fill-rule="evenodd" clip-rule="evenodd" d="M8.563 57.567l-.34-38.29L41.652-.143l32.785 19.44.34 38.29-33.429 19.42-32.785-19.44zm14.748-8.568l-.243-21.24 18.46-10.726L59.69 27.866l.243 21.241-18.46 10.725L23.31 48.999z"/><path d="M8.563 57.567l-.34-38.29m.34 38.29l32.785 19.44M8.563 57.568L23.311 49M8.223 19.277L41.652-.143m-33.43 19.42l14.846 8.481M41.652-.143l32.785 19.44M41.652-.142l-.123 17.177m32.908 2.264l.34 38.29m-.34-38.29L59.69 27.865M41.35 77.008l33.428-19.42m-33.429 19.42l.123-17.177m33.306-2.243l-14.845-8.482M23.31 49l-.243-21.24M23.31 49l18.16 10.832M23.068 27.758l18.46-10.724m0 0l18.162 10.83m0 0l.243 21.241M41.473 59.83l18.46-10.725M41.674 6.24c-2.46 1.702-4.194 5.783-4.194 10.546 0 4.764 1.734 8.845 4.194 10.546 2.46-1.701 4.194-5.782 4.194-10.546 0-4.763-1.733-8.844-4.194-10.546z"/><path d="M41.674 6.24l.341-.493-.341-.236-.341.236.341.493zm0 21.092l-.341.494.341.236.341-.236-.341-.494zm-3.593-10.546c0-4.663 1.702-8.508 3.934-10.052l-.682-.987c-2.689 1.859-4.453 6.175-4.453 11.04h1.2zm3.934 10.053c-2.232-1.544-3.934-5.39-3.934-10.053h-1.2c0 4.864 1.763 9.18 4.452 11.04l.682-.987zm4.453-10.053c0-4.864-1.764-9.18-4.453-11.04l-.682.988c2.232 1.544 3.935 5.39 3.935 10.052h1.2zm-4.453 11.04c2.689-1.86 4.453-6.176 4.453-11.04h-1.2c0 4.663-1.703 8.509-3.935 10.053l.682.987z"/><path fill-rule="evenodd" clip-rule="evenodd" d="M39.617 27.576L23.29 18.151c3.952-3.056 9.516-3.604 14.11-.951a12.635 12.635 0 014.273 4.036 12.634 12.634 0 014.273-4.036c4.595-2.652 10.158-2.105 14.11.95l-16.325 9.426c.038.77.005 1.546-.1 2.319l-1.958-1.13-1.958 1.13a12.648 12.648 0 01-.1-2.319z"/><path d="M23.291 18.15l-.367-.474-.708.547.775.447.3-.52zm16.326 9.426l.6.03.017-.366-.317-.183-.3.52zM37.4 17.2l.3-.52-.3.52zm4.273 4.036l-.502.328.502.769.502-.768-.502-.329zm4.273-4.036l.3.52-.3-.52zm14.11.95l.3.52.775-.447-.707-.547-.367.475zm-16.325 9.426l-.3-.52-.318.184.018.366.6-.03zm-.1 2.319l-.3.52.776.447.12-.887-.595-.08zm-1.958-1.13l.3-.52-.3-.174-.3.173.3.52zm-1.958 1.13l-.595.08.12.887.775-.447-.3-.52zM22.99 18.67l16.326 9.426.6-1.04-16.326-9.425-.6 1.04zm14.71-1.99c-4.812-2.778-10.639-2.204-14.777.996l.734.95c3.766-2.913 9.067-3.433 13.443-.906l.6-1.04zm4.475 4.228A13.235 13.235 0 0037.7 16.68l-.6 1.04c1.699.98 3.068 2.31 4.071 3.845l1.005-.657zm0 .656a12.035 12.035 0 014.072-3.844l-.6-1.04a13.235 13.235 0 00-4.476 4.228l1.005.656zm4.072-3.844c4.376-2.527 9.676-2.007 13.443.905l.733-.95c-4.138-3.199-9.964-3.773-14.776-.995l.6 1.04zm13.51-.09l-16.326 9.427.6 1.039 16.326-9.426-.6-1.04zm-15.53 12.345c.11-.81.143-1.622.103-2.428l-1.199.059a11.93 11.93 0 01-.094 2.208l1.19.161zm-2.854-.691l1.959 1.13.6-1.039-1.959-1.13-.6 1.039zm0-1.04l-1.958 1.131.6 1.04 1.958-1.131-.6-1.04zm-1.064 1.57a12.05 12.05 0 01-.094-2.208l-1.198-.06c-.04.807-.007 1.62.103 2.43l1.19-.162z"/><path d="M45.963 26.943H37.48v12.47h8.483v-12.47z"/><path d="M22 28.7h19.72a10.656 10.656 0 00-9.86-6.614c-4.454 0-8.27 2.734-9.86 6.615zm19.722 0h19.721a10.656 10.656 0 00-9.86-6.614c-4.454 0-8.27 2.734-9.861 6.615z"/><ellipse rx="3.802" ry="3.825" transform="matrix(-1 -.00205 -.00205 1 38.458 27.962)"/><ellipse rx="3.91" ry="3.935" transform="matrix(-1 -.00205 -.00205 1 45.377 31.72)"/></g></g><defs><clipPath id="lclip0"><path d="M0 0h83v70H0z"/></clipPath><clipPath id="lclip1"><path d="M0 0h83v39H0z"/></clipPath></defs></symbol><symbol viewBox="0 0 200 36" id="logo-head" xmlns="http://www.w3.org/2000/svg"><path d="M31.803 7.414a18.047 18.047 0 00-1.663-2.01l-.125-.133A17.534 17.534 0 0023.262.96v23.613c0 .792-.152 1.575-.448 2.307a6.038 6.038 0 01-1.276 1.955 5.877 5.877 0 01-1.91 1.307 5.77 5.77 0 01-2.253.458h-3.51v5a17.28 17.28 0 0012.905-2.251 17.842 17.842 0 006.481-7.18 18.366 18.366 0 001.86-9.586 18.263 18.263 0 00-3.308-9.169v.001zM17.582 0a17.28 17.28 0 00-9.188 2.654 17.847 17.847 0 00-6.48 7.179 18.367 18.367 0 00-1.86 9.587c.256 3.31 1.4 6.483 3.308 9.169A18.174 18.174 0 005.15 30.73a17.548 17.548 0 006.75 4.313V11.428c0-1.598.621-3.131 1.726-4.261a5.82 5.82 0 014.163-1.765h3.51v-5A17.343 17.343 0 0017.581 0zM45.739 12.851a.521.521 0 01-.338-.106.418.418 0 01-.132-.318V.913c0-.13.044-.236.132-.319a.473.473 0 01.338-.124h1.484c.263 0 .45.112.563.336l3.624 6.368L55.073.806a.607.607 0 01.563-.336h1.465c.138 0 .25.042.338.124a.418.418 0 01.131.319v11.514c0 .13-.044.236-.131.318a.522.522 0 01-.338.106h-1.578a.449.449 0 01-.319-.124.398.398 0 01-.131-.3V4.768l-2.63 4.723c-.162.26-.375.389-.638.389h-.77c-.263 0-.476-.13-.639-.39l-2.629-4.722v7.659a.398.398 0 01-.131.3.41.41 0 01-.32.124H45.74zm15.203 0a.474.474 0 01-.338-.124.455.455 0 01-.112-.318V.913a.42.42 0 01.13-.319.473.473 0 01.339-.124h1.69a.41.41 0 01.32.124.418.418 0 01.13.319V9.03l6.18-8.278a.643.643 0 01.544-.283h1.559a.41.41 0 01.319.124.418.418 0 01.132.319v11.514a.398.398 0 01-.132.3.41.41 0 01-.32.124h-1.69a.521.521 0 01-.337-.106.418.418 0 01-.132-.318v-7.96l-6.16 8.101a.929.929 0 01-.225.213.6.6 0 01-.32.07h-1.577zm14.268 0a.449.449 0 01-.319-.124.398.398 0 01-.131-.3V.913c0-.13.037-.236.112-.319A.473.473 0 0175.21.47h1.71a.41.41 0 01.319.124.418.418 0 01.131.319v4.563h5.54V.913c0-.13.038-.236.113-.319A.473.473 0 0183.36.47h1.69c.138 0 .25.042.338.124a.418.418 0 01.132.319v11.514c0 .13-.044.236-.132.318a.521.521 0 01-.338.106h-1.69a.449.449 0 01-.32-.124.398.398 0 01-.13-.3v-4.74h-5.54v4.74a.398.398 0 01-.132.3.41.41 0 01-.32.124H75.21zm13.682 0a.473.473 0 01-.338-.124.455.455 0 01-.113-.318V.913c0-.13.044-.236.132-.319A.473.473 0 0188.91.47h1.69a.41.41 0 01.32.124.418.418 0 01.13.319V9.03L97.23.752a.643.643 0 01.544-.283h1.558a.41.41 0 01.32.124.418.418 0 01.131.319v11.514a.398.398 0 01-.131.3.41.41 0 01-.32.124h-1.69a.522.522 0 01-.338-.106.418.418 0 01-.131-.318v-7.96l-6.16 8.101a.929.929 0 01-.225.213.6.6 0 01-.32.07h-1.577zm18.888.177c-1.728 0-3.067-.418-4.019-1.256-.939-.837-1.44-2.016-1.502-3.537a43.46 43.46 0 01-.019-1.557c0-.73.006-1.261.019-1.591.062-1.51.569-2.683 1.521-3.52.964-.85 2.297-1.274 4-1.274 1.114 0 2.085.183 2.911.549.826.354 1.465.843 1.915 1.468.451.613.689 1.309.714 2.087v.035c0 .095-.044.177-.131.248a.416.416 0 01-.263.088h-1.784c-.151 0-.263-.03-.338-.088-.076-.06-.138-.171-.188-.336-.201-.743-.532-1.262-.996-1.557-.463-.306-1.083-.46-1.859-.46-1.803 0-2.742.95-2.817 2.848-.012.318-.019.808-.019 1.468 0 .66.007 1.162.019 1.504.075 1.898 1.014 2.847 2.817 2.847.776 0 1.396-.153 1.859-.46.476-.306.808-.825.996-1.556.037-.165.094-.277.169-.336a.629.629 0 01.357-.089h1.784c.112 0 .206.036.281.106a.28.28 0 01.113.266 3.722 3.722 0 01-.714 2.104c-.45.614-1.089 1.103-1.915 1.469-.826.353-1.797.53-2.911.53zm11.11-.177a.447.447 0 01-.319-.124.397.397 0 01-.132-.3V2.646h-3.474a.447.447 0 01-.319-.124.397.397 0 01-.132-.3V.911c0-.13.038-.235.113-.318a.473.473 0 01.338-.124h9.578c.137 0 .25.042.338.124a.42.42 0 01.131.319V2.22a.4.4 0 01-.131.301.475.475 0 01-.338.124h-3.456v9.78a.4.4 0 01-.131.301.475.475 0 01-.338.124h-1.728zm8.479 0a.45.45 0 01-.32-.124.4.4 0 01-.131-.3V.913c0-.13.037-.236.112-.319a.476.476 0 01.339-.124h8.263c.137 0 .25.042.338.124a.42.42 0 01.131.319V2.08a.42.42 0 01-.131.318.523.523 0 01-.338.106h-6.179v3.131h5.765c.138 0 .251.041.339.124.087.07.131.17.131.3v1.097a.42.42 0 01-.131.318.524.524 0 01-.339.107h-5.765v3.236h6.329c.138 0 .25.041.338.124a.416.416 0 01.131.318v1.168c0 .13-.043.236-.131.318a.521.521 0 01-.338.106h-8.413zm11.682 0a.447.447 0 01-.319-.124.397.397 0 01-.132-.3V.913c0-.13.038-.236.113-.319a.473.473 0 01.338-.124h5.033c1.502 0 2.685.336 3.549 1.008.864.66 1.296 1.634 1.296 2.919 0 1.285-.432 2.258-1.296 2.918-.851.649-2.034.973-3.549.973h-2.798v4.139a.397.397 0 01-.132.3.409.409 0 01-.319.124h-1.784zm4.939-6.526c.726 0 1.283-.16 1.671-.478.389-.33.583-.813.583-1.45 0-.613-.188-1.09-.564-1.433-.375-.354-.939-.53-1.69-.53h-2.742v3.89h2.742zm12.06 6.703c-1.728 0-3.067-.418-4.019-1.256-.939-.837-1.44-2.016-1.502-3.537a43.46 43.46 0 01-.019-1.557c0-.73.006-1.261.019-1.591.062-1.51.569-2.683 1.521-3.52.964-.85 2.297-1.274 4-1.274 1.114 0 2.085.183 2.911.549.826.354 1.465.843 1.915 1.468.451.613.689 1.309.714 2.087v.035c0 .095-.044.177-.131.248a.416.416 0 01-.263.088h-1.784c-.151 0-.263-.03-.338-.088-.076-.06-.138-.171-.188-.336-.201-.743-.532-1.262-.996-1.557-.463-.306-1.083-.46-1.859-.46-1.803 0-2.742.95-2.817 2.848-.012.318-.019.808-.019 1.468 0 .66.007 1.162.019 1.504.075 1.898 1.014 2.847 2.817 2.847.776 0 1.396-.153 1.859-.46.476-.306.808-.825.996-1.556.037-.165.094-.277.169-.336a.629.629 0 01.357-.089h1.784c.112 0 .206.036.281.106a.28.28 0 01.113.266 3.722 3.722 0 01-.714 2.104c-.45.614-1.089 1.103-1.915 1.469-.826.353-1.797.53-2.911.53zm18.265-.778a.302.302 0 01.057.194c0 .107-.044.2-.132.283a.386.386 0 01-.3.124h-1.935c-.15 0-.263-.023-.338-.07a1.393 1.393 0 01-.225-.23l-3.23-4.864h-1.784v4.74a.397.397 0 01-.132.3.409.409 0 01-.319.124h-1.709a.447.447 0 01-.319-.124.397.397 0 01-.132-.3V.913c0-.13.038-.236.113-.319a.473.473 0 01.338-.124h1.709a.41.41 0 01.319.124.417.417 0 01.132.319v4.563l1.652.017L171.123.79c.125-.213.35-.319.676-.319h1.859c.125 0 .219.036.282.106a.35.35 0 01.112.266.522.522 0 01-.075.212l-3.549 5.395 3.887 5.8zm2.534.601a.473.473 0 01-.338-.124.456.456 0 01-.113-.318V.913c0-.13.044-.236.132-.319a.472.472 0 01.338-.124h1.69a.41.41 0 01.319.124.417.417 0 01.132.319V9.03l6.178-8.278a.645.645 0 01.545-.283h1.559a.41.41 0 01.319.124.42.42 0 01.131.319v11.514a.4.4 0 01-.131.3.41.41 0 01-.319.124H185.6a.523.523 0 01-.338-.106.42.42 0 01-.131-.318v-7.96l-6.16 8.101a.93.93 0 01-.225.213.603.603 0 01-.32.07h-1.577zm14.268 0a.45.45 0 01-.319-.124.396.396 0 01-.131-.3V.913c0-.13.037-.236.112-.319a.475.475 0 01.338-.124h8.263c.138 0 .251.042.338.124a.417.417 0 01.132.319V2.08c0 .13-.044.236-.132.318a.52.52 0 01-.338.106h-6.178v3.131h5.765a.47.47 0 01.338.124c.088.07.132.17.132.3v1.097c0 .13-.044.236-.132.318a.52.52 0 01-.338.107h-5.765v3.236h6.329c.137 0 .25.041.338.124a.42.42 0 01.131.318v1.168a.42.42 0 01-.131.318.523.523 0 01-.338.106h-8.414zM50.71 33.6c-1.684 0-2.996-.407-3.937-1.22-.94-.814-1.435-2.023-1.485-3.626a44.966 44.966 0 01-.018-1.504c0-.672.006-1.179.018-1.52.05-1.57.557-2.772 1.523-3.609.965-.837 2.265-1.256 3.898-1.256 1.634 0 2.934.419 3.9 1.256.977.837 1.49 2.04 1.54 3.608.025.684.037 1.191.037 1.521 0 .319-.012.82-.037 1.504-.062 1.603-.563 2.812-1.504 3.625-.94.814-2.252 1.22-3.936 1.22zm0-2.034c.829 0 1.49-.236 1.986-.708.495-.483.761-1.214.798-2.193.025-.707.037-1.185.037-1.432 0-.272-.012-.75-.037-1.433-.037-.979-.303-1.704-.798-2.176-.495-.483-1.157-.725-1.987-.725-.817 0-1.473.242-1.968.725-.495.472-.76 1.197-.798 2.176-.012.342-.018.82-.018 1.433 0 .6.006 1.078.018 1.432.037.979.297 1.71.78 2.193.495.472 1.157.708 1.986.708zM63.024 33.6c-1.089 0-2.01-.148-2.766-.442-.742-.307-1.312-.708-1.708-1.203a3.251 3.251 0 01-.668-1.645v-.035a.28.28 0 01.111-.23.434.434 0 01.279-.089h1.67c.26 0 .44.118.539.354.148.39.433.702.854.938.42.224.965.336 1.634.336.78 0 1.417-.16 1.912-.478.507-.318.761-.749.761-1.291 0-.566-.222-1.002-.668-1.309-.433-.318-1.046-.477-1.838-.477h-1.337a.44.44 0 01-.316-.124.42.42 0 01-.13-.319v-1.025a.42.42 0 01.13-.319.44.44 0 01.316-.124h1.281c.669 0 1.195-.135 1.578-.406.396-.272.594-.678.594-1.22 0-.484-.21-.868-.63-1.15-.41-.295-.942-.443-1.598-.443-.668 0-1.212.112-1.633.336-.409.213-.663.53-.762.955a.653.653 0 01-.185.266c-.062.047-.161.07-.297.07H58.42a.457.457 0 01-.297-.106.299.299 0 01-.093-.265c.087-.955.545-1.74 1.374-2.352.842-.625 2.06-.938 3.658-.938.99 0 1.844.16 2.562.478.73.306 1.287.725 1.67 1.256a2.79 2.79 0 01.576 1.698c0 .542-.117 1.043-.353 1.503-.222.46-.594.831-1.114 1.114.644.307 1.12.725 1.43 1.256.31.519.464 1.09.464 1.716 0 .73-.216 1.38-.65 1.945-.433.554-1.046.99-1.838 1.31-.792.306-1.72.459-2.785.459zm8.049-.177a.44.44 0 01-.316-.124.4.4 0 01-.13-.3V21.484c0-.13.037-.236.111-.318a.465.465 0 01.335-.124h8.169c.136 0 .247.041.334.124a.42.42 0 01.13.318v1.168a.42.42 0 01-.13.318.511.511 0 01-.334.106h-6.109v3.13h5.7c.136 0 .248.042.334.125.087.07.13.17.13.3v1.097a.42.42 0 01-.13.318.512.512 0 01-.334.106h-5.7v3.237h6.257c.136 0 .248.041.334.124a.42.42 0 01.13.318V33a.42.42 0 01-.13.318.51.51 0 01-.334.106h-8.317zm11.549 0a.44.44 0 01-.316-.124.4.4 0 01-.13-.3V21.484c0-.13.037-.236.112-.318a.465.465 0 01.334-.124h4.975c1.486 0 2.656.336 3.51 1.008.853.66 1.28 1.633 1.28 2.919 0 1.285-.427 2.258-1.28 2.918-.842.648-2.012.973-3.51.973h-2.766v4.139a.4.4 0 01-.13.3.402.402 0 01-.315.124h-1.764zm4.883-6.527c.718 0 1.268-.159 1.652-.477.384-.33.576-.814.576-1.45 0-.614-.186-1.091-.557-1.433-.372-.354-.929-.53-1.671-.53h-2.711v3.89h2.71zm6.111 6.527a.432.432 0 01-.278-.106.35.35 0 01-.112-.265l.037-.16 4.475-11.408c.087-.295.303-.442.65-.442h2.023c.322 0 .539.147.65.442l4.475 11.408a.528.528 0 01.018.16.352.352 0 01-.111.265.365.365 0 01-.26.106h-1.615c-.161 0-.285-.035-.372-.106a.487.487 0 01-.167-.23l-.872-2.158h-5.514l-.873 2.158c-.1.224-.279.336-.538.336h-1.616zm7.891-4.528L99.39 23.43l-2.098 5.465h4.215z"/></symbol><symbol viewBox="0 0 236 138" id="main-bg" xmlns="http://www.w3.org/2000/svg"><g opacity=".1"><path fill-rule="evenodd" clip-rule="evenodd" d="M9.749 42.426L54.21-56.615 163.857-66.81l61.96 89.146-44.462 99.042-109.647 10.195-61.96-89.147zm48.373-4.498l24.525-55.006 60.551-5.63 34.245 49.542-24.524 55.007-60.551 5.63-34.246-49.543z"/><path d="M9.749 42.426L54.21-56.615M9.749 42.426l61.96 89.147M9.748 42.426l48.373-4.498M54.21-56.615L163.857-66.81M54.211-56.615l28.436 39.537m81.21-49.732l61.96 89.146m-61.96-89.146l-20.659 44.102m82.619 45.044l-44.462 99.042m44.462-99.042l-48.374 4.498M71.708 131.573l109.647-10.195M71.708 131.573l20.66-44.102m88.987 33.907l-28.436-39.537M58.122 37.929l24.525-55.007M58.122 37.929L92.368 87.47M82.647-17.08l60.551-5.63m0 0l34.245 49.543m0 0L152.919 81.84m-60.551 5.63l60.551-5.63"/></g></symbol><symbol viewBox="0 0 670 598" id="map" xmlns="http://www.w3.org/2000/svg"><path d="M410 598.001h260V0H0c1.454 5.814 4.558 5.737 6.896 10.997 2.153 4.845 4.442 9.456 6.263 14.442 1.11 3.036 2.614 5.852 3.71 8.939.85 2.399 1.935 5.096 3.192 7.297 2.745 4.803 3.911 11.04 5.99 16.236 2.224 5.56 4.145 11.627 5.746 17.39 1.536 5.53 2.748 11.79 5.2 16.966 2.921 6.169 6.52 12.643 8.482 19.185 1.71 5.698 2.618 11.859 3.557 17.725.484 3.028 1.596 6.515 2.736 9.365 1.244 3.108 1.49 6.717 2.737 9.972 2.65 6.922 4.43 14.074 5.472 21.374.553 3.87 1.095 7.689 1.095 11.615 0 6.38 4.73 10.696 4.924 16.998.196 6.362 3.272 14.517 5.42 20.53 1 2.801 1.642 5.347 1.642 8.331 0 3.902.876 7.267 1.885 11.006 2.547 9.44 4.1 18.885 7.692 28.063 2.727 6.97 6.99 13.668 8.361 21.07.897 4.843 1.952 9.664 2.888 14.502.492 2.541 5.612 14.998 8.78 18.476 2.167 3.25 3.911 7.933 4.925 11.736.662 2.481 2.247 6.724 3.953 8.635 3.222 3.608 4.749 9.506 6.993 13.834 1.488 2.87 3.118 4.964 4.074 8.178.764 2.569 1.032 5.333 1.946 7.844 1.467 4.034 2.597 8.166 4.074 12.192 1.585 4.324 2.403 9.511 5.229 13.226 3.843 5.051 7.374 10.265 11.463 15.172 3.543 4.251 6.863 8.527 9.334 13.469 2.054 4.108 5.132 7.29 8.178 10.641 4.356 4.791 7.267 10.359 11.767 15.02 6.138 6.358 12.382 12.382 18.637 18.637l.106.106c3.469 3.469 5.983 5.983 11.153 5.983 3.328 0 8.612 2.866 11.423 4.553 3.162 1.897 6.068 2.907 8.908 5.624 3.796 3.631 8.139 7.183 12.526 10.003 5.143 3.306 8.244 8.379 13.925 11.219 5.82 2.91 7.277 12.911 9.547 18.303 1.803 4.282 2.158 8.135 4.895 12.071 2.871 4.127 5.733 7.721 9.334 11.219 6.818 6.623 16.679 8.748 25.844 8.209 4.919-.29 11.639-1.701 16.598-1.701 4.358 0 11.609.144 15.5 1.701 7.096 2.838 9.371 3.307 16.73 5.351 3.594.998 7.224 2.93 10.459 4.804 3.861 2.235 9.147 4.023 12.405 6.932 2.728 2.435 7.144 3.193 10.277 5.108 4.13 2.524 8.366 4.871 12.465 7.479 1.136.723 1.67 1.968 2.645 2.858 1.203 1.098 2.794 1.577 4.044 2.615 2.715 2.254 5.631 3.863 7.975 6.501z"/><path opacity=".4" d="M180.499 339.454l-.491.871.491-.871zm.125.07l-.492.871.492-.871zm3.976 2.691l.68-.734-.68.734zm4.076 2.961l-.725.689.725-.689zm4.026 4.067l.642-.767-.642.767zm23.038 17.87l-.651.759.651-.759zm12.99 17.081l-.817.577.817-.577zm12.128 12.901l.708-.705-.708.705zm5.159 14.558l-.745.667.745-.667zm5.275 16.316l-.797.603.797-.603zm9.253 9.965l.735-.678-.735.678zm.123.134l-.735.678.735-.678zm16.848 5.74l.022-1-.022 1zm8.453-4.066l-.691-.724.691.724zm14.953-5.623l.179.984-.179-.984zm23.05 1.13l-.095.995.095-.995zm5.952 2.685l-.427.905.427-.905zm11.953 5.874l.487-.873-.487.873zm10.652 9.939l.613-.79-.613.79zm13.979 11.095l-.608.794.608-.794zm22.806 12.048l.478-.878-.478.878zm20.43 15.512l.63-.776-.63.776zm12.103 10.141l.695-.719-.695.719zm13.528 10.416l-.63.776.63-.776zm22.506 12.224l.556-.831-.556.831zm8.427 4.92l.499-.867-.499.867zm6.052 4.066l-.366.931.366-.931zm6.651 4.066l-.708.706.708-.706zm11.053 12.651l.826-.564-.826.564zm13.504 14.006l.662-.75-.662.75zm11.652 8.684l-.403.915.403-.915zm36.059 6.677l.198.98h.001l-.199-.98zm.289-.058l-.199-.98.199.98zm8.489-.569l-.185.982.185-.982zm11.603 4.242l-.363.932.363-.932zm8.677 2.259l.367-.931-.367.931zm8.252 3.338l-.399.917.399-.917zm7.594 3.136a1 1 0 00.634-1.897l-.634 1.897zM192.702 289.204l-.52-.854.52.854zm16.928-14.082l.063.998-.063-.998zm24.439-4.77l-.761-.648.761.648zm31.907-10.221l-.503-.864.503.864zm22.402-2.044l.425.905a.724.724 0 00.073-.038l-.498-.867zm15.614-16.354l-.564-.826a.965.965 0 00-.072.054l.636.772zm33.943-25.894l-.844-.536.844.536zm21.045-38.159l-.778-.629c-.05.062-.092.13-.126.201l.904.428zm14.353-17.154l.771.637-.771-.637zm6.852-7.656l.762.648-.762-.648zm9.603-13.378l-.771-.638.771.638zm14.453-24.774l.866.5-.866-.5zm4.351-7.581l-.796-.605.796.605zm12.053-18.75l.839.545-.839-.544zm8.853-21.284l-.924-.383.924.383zm5.376-14.785l.997.074-.997-.074zM147.175 316.69l-.709.705.709-.705zm-4.752-3.101l.559-.829-.559.829zm-4.752-3.514l-.801.598.801-.598zm-7.341-4.555l-.57.822.57-.822zm-8.952-7.229l.586-.81-.586.81zm-5.651-6.124l-.761.649.761-.649zm-2.926-2.962l-.774.634.774-.634zm-2.926-4.819l-.814.581.814-.581zm-3.586-14.347l.951-.309-.951.309zm-1.883-14.677l.938-.348-.938.348zm-6.788-43.61l-.998-.071.998.071zm-5.431-11.584l1 .018-1-.018zm-.752-10.817l.912-.41-.912.41zm-6.037-21.891l-.962.27.962-.27zm-4.073-23.168l-.966.256.966-.256zm-13.02-41.094l.894-.449-.894.449zM52.3 67.755l.92-.392-.92.392zm-5.852-12.5l.897-.442-.897.442zm-2.7-6.3l.864-.502-.864.502zM35.897 34.07l.831-.555-.831.555zm-7.252-9.99l-.837.548.837-.547zM17.292 9.724L18 9.017l-.708.706zM10.182.422a1 1 0 00-1.365 1.461L10.183.422zm428.569 20.847l-.934-.356.934.356zm.258-11.756l.937-.347-.937.347zM437.68 4.52a1 1 0 00-1.911.59l1.911-.59zM154.785 322.173c7.654 5.655 16.726 13.354 25.223 18.152l.983-1.742c-8.357-4.718-17.189-12.235-25.017-18.019l-1.189 1.609zm25.223 18.152l.124.07.984-1.742-.125-.07-.983 1.742zm.124.07c1.454.82 2.654 1.502 3.789 2.553l1.359-1.467c-1.332-1.233-2.733-2.02-4.165-2.828l-.983 1.742zm3.789 2.553c.717.665 1.536 1.148 2.223 1.57.717.441 1.316.829 1.807 1.347l1.451-1.377c-.693-.73-1.501-1.238-2.211-1.674-.741-.455-1.368-.83-1.911-1.333l-1.359 1.467zm4.03 2.917c1.256 1.323 2.604 2.885 4.11 4.145l1.283-1.534c-1.388-1.162-2.593-2.566-3.942-3.988l-1.451 1.377zm4.11 4.145c3.286 2.748 7.454 5.848 11.58 8.933 4.142 3.097 8.244 6.181 11.448 8.929l1.302-1.518c-3.265-2.8-7.422-5.925-11.552-9.013-4.145-3.099-8.261-6.16-11.495-8.865l-1.283 1.534zm23.028 17.862c2.766 2.373 4.877 5.037 6.845 7.895.986 1.431 1.93 2.901 2.907 4.411.974 1.506 1.979 3.046 3.072 4.593l1.633-1.155c-1.067-1.51-2.053-3.02-3.026-4.524-.97-1.5-1.932-2.998-2.939-4.46-2.017-2.928-4.24-5.748-7.19-8.278l-1.302 1.518zm12.824 16.899c3.374 4.772 8.273 9.051 12.236 13.03l1.417-1.411c-4.111-4.128-8.775-8.185-12.02-12.774l-1.633 1.155zm12.236 13.03c1.911 1.918 2.155 4.053 2.379 6.572.221 2.479.421 5.35 2.744 7.947l1.49-1.333c-1.825-2.041-2.015-4.251-2.242-6.792-.223-2.502-.484-5.327-2.954-7.805l-1.417 1.411zm5.123 14.519c1.34 1.498 1.978 2.759 2.293 3.89.319 1.147.326 2.222.309 3.439-.017 1.193-.058 2.54.258 4.019.322 1.503 1.001 3.103 2.363 4.904l1.595-1.206c-1.199-1.586-1.746-2.922-2.002-4.117-.261-1.218-.232-2.331-.214-3.572.017-1.218.022-2.552-.383-4.004-.409-1.468-1.216-2.995-2.729-4.686l-1.49 1.333zm5.223 16.252c1.388 1.837 2.979 3.543 4.584 5.185 1.62 1.659 3.228 3.226 4.731 4.855l1.47-1.356c-1.527-1.655-3.197-3.286-4.771-4.896-1.589-1.627-3.109-3.261-4.419-4.994l-1.595 1.206zm9.315 10.04l.123.134 1.47-1.356-.123-.134-1.47 1.356zm.123.134c.835.906 2.093 1.71 3.499 2.406 1.423.705 3.072 1.335 4.755 1.864 3.35 1.053 6.948 1.741 9.308 1.792l.043-2c-2.106-.045-5.506-.68-8.751-1.7-1.614-.507-3.161-1.101-4.467-1.748-1.323-.655-2.326-1.329-2.917-1.97l-1.47 1.356zm17.562 6.062c4.059.086 6.457-1.762 9.164-4.343l-1.381-1.447c-2.614 2.492-4.507 3.859-7.74 3.79l-.043 2zm9.164-4.343c4.219-4.024 8.265-4.24 14.442-5.362l-.357-1.968c-5.94 1.079-10.714 1.352-15.466 5.883l1.381 1.447zm14.442-5.362c2.406-.437 6.732-.294 11.225.043 4.459.335 8.909.846 11.551 1.098l.19-1.991c-2.586-.247-7.108-.765-11.591-1.101-4.448-.334-9.032-.507-11.732-.017l.357 1.968zm22.776 1.141c.795.076 1.688.453 2.684.986.904.484 2.031 1.182 2.936 1.609l.853-1.809c-.878-.414-1.723-.963-2.846-1.564-1.031-.551-2.222-1.097-3.437-1.213l-.19 1.991zm5.62 2.595c4.01 1.89 8.085 3.715 11.892 5.842l.975-1.746c-3.885-2.171-8.054-4.039-12.014-5.905l-.853 1.809zm11.892 5.842c1.957 1.093 3.577 2.734 5.235 4.553 1.624 1.782 3.308 3.767 5.293 5.304l1.225-1.581c-1.81-1.401-3.341-3.206-5.039-5.07-1.664-1.826-3.473-3.686-5.739-4.952l-.975 1.746zm10.528 9.857c2.35 1.82 4.653 3.68 6.969 5.546 2.312 1.863 4.636 3.73 7.014 5.552l1.216-1.588c-2.356-1.805-4.662-3.658-6.976-5.522-2.311-1.861-4.63-3.735-6.998-5.569l-1.225 1.581zm13.983 11.098c3.552 2.721 7.432 4.734 11.335 6.573 3.933 1.852 7.836 3.507 11.6 5.559l.957-1.756c-3.832-2.089-7.866-3.804-11.704-5.613-3.868-1.822-7.593-3.762-10.972-6.351l-1.216 1.588zm22.935 12.132c7.418 4.045 13.574 9.966 20.278 15.41l1.261-1.552c-6.528-5.302-12.949-11.452-20.582-15.614l-.957 1.756zm20.278 15.41c4.073 3.307 8.352 6.515 12.038 10.083l1.391-1.437c-3.77-3.649-8.179-6.959-12.168-10.198l-1.261 1.552zm12.038 10.083c2.088 2.021 4.424 3.77 6.756 5.441 2.349 1.683 4.675 3.276 6.838 5.033l1.261-1.552c-2.225-1.808-4.632-3.457-6.934-5.107-2.32-1.662-4.554-3.339-6.53-5.252l-1.391 1.437zm13.594 10.474c3.459 2.811 7.416 4.724 11.319 6.506 3.937 1.798 7.796 3.454 11.261 5.773l1.112-1.662c-3.633-2.431-7.676-4.164-11.542-5.93-3.901-1.781-7.647-3.605-10.889-6.239l-1.261 1.552zm22.58 12.279c2.792 1.869 5.686 3.344 8.484 4.955l.998-1.733c-2.916-1.679-5.65-3.064-8.37-4.884l-1.112 1.662zm8.484 4.955c.968.557 1.835 1.286 2.844 2.073.975.76 2.062 1.555 3.341 2.058l.731-1.862c-.989-.389-1.882-1.024-2.842-1.773-.926-.722-1.951-1.581-3.076-2.229l-.998 1.733zm6.185 4.131c1.48.581 2.479.978 3.404 1.51.906.521 1.767 1.189 2.905 2.331l1.417-1.412c-1.227-1.231-2.227-2.021-3.324-2.652-1.077-.62-2.222-1.07-3.671-1.639l-.731 1.862zm6.309 3.841c4.013 4.028 7.773 7.876 10.935 12.509l1.652-1.128c-3.28-4.805-7.164-8.771-11.17-12.793l-1.417 1.412zm10.935 12.509c3.599 5.272 9.009 10.076 13.667 14.191l1.325-1.499c-4.699-4.15-9.907-8.791-13.34-13.82l-1.652 1.128zm13.667 14.191c3.479 3.073 7.428 6.871 11.912 8.85l.807-1.83c-4.124-1.82-7.789-5.334-11.394-8.519l-1.325 1.499zm11.912 8.85c11.069 4.886 24.242 9.251 36.66 6.742l-.396-1.96c-11.762 2.376-24.432-1.745-35.457-6.612l-.807 1.83zm36.661 6.742l.288-.058-.397-1.96-.288.058.397 1.96zm.288-.058c2.901-.587 5.384-1.079 8.106-.567l.37-1.965c-3.163-.595-6.023-.005-8.873.572l.397 1.96zm8.106-.567c1.828.344 3.739 1.019 5.683 1.804 1.875.757 3.934 1.685 5.742 2.388l.725-1.865c-1.856-.721-3.672-1.551-5.718-2.378-1.979-.799-4.037-1.533-6.062-1.914l-.37 1.965zm11.425 4.192c1.53.594 3.079.894 4.523 1.178 1.47.288 2.834.56 4.15 1.079l.734-1.861c-1.513-.596-3.054-.897-4.499-1.181-1.471-.288-2.846-.56-4.183-1.08l-.725 1.865zm8.673 2.257c2.801 1.104 5.486 2.134 8.22 3.325l.798-1.834c-2.775-1.209-5.507-2.257-8.284-3.352l-.734 1.861zm8.22 3.325c1.368.596 2.825.958 4.189 1.267 1.397.316 2.665.571 3.804.952l.634-1.897c-1.262-.423-2.675-.707-3.996-1.005-1.353-.307-2.651-.636-3.833-1.151l-.798 1.834zM155.628 322.337c8.104-2.083 14.866-8.679 20.869-15.373 3.051-3.402 5.855-6.773 8.658-9.793 2.785-3.003 5.443-5.515 8.067-7.113l-1.04-1.708c-2.87 1.748-5.682 4.43-8.494 7.46-2.795 3.013-5.718 6.516-8.68 9.819-6.022 6.715-12.425 12.856-19.878 14.771l.498 1.937zm37.594-32.279c.925-.563 2.133-1.773 3.417-3.128 1.336-1.411 2.811-3.044 4.388-4.66 1.569-1.608 3.176-3.132 4.707-4.271 1.561-1.161 2.904-1.812 3.959-1.879l-.125-1.996c-1.661.105-3.398 1.059-5.028 2.27-1.659 1.234-3.354 2.849-4.945 4.479-1.582 1.622-3.124 3.326-4.408 4.682-1.337 1.412-2.354 2.399-3.005 2.795l1.04 1.708zm16.471-13.938c2.697-.169 5.293-.236 7.769-.322 2.464-.085 4.812-.188 6.963-.431 4.266-.482 7.998-1.538 10.406-4.366l-1.523-1.297c-1.887 2.216-4.943 3.205-9.108 3.676-2.065.233-4.342.335-6.807.42-2.454.084-5.092.153-7.825.324l.125 1.996zm25.138-5.119c1.153-1.355 3.158-2.444 5.797-3.356 2.615-.904 5.712-1.588 8.919-2.216 3.179-.622 6.49-1.192 9.418-1.861 2.918-.665 5.597-1.457 7.514-2.573l-1.006-1.728c-1.634.951-4.054 1.69-6.953 2.352-2.889.659-6.112 1.213-9.357 1.848-3.217.629-6.432 1.335-9.189 2.287-2.733.945-5.158 2.179-6.666 3.95l1.523 1.297zm31.648-10.006c.752-.438 2.17-.723 4.141-.872 1.919-.145 4.178-.151 6.487-.146 2.29.006 4.632.022 6.654-.084 1.977-.104 3.827-.33 5.042-.901l-.85-1.81c-.819.385-2.301.609-4.297.714-1.953.103-4.229.087-6.544.081-2.298-.005-4.633 0-6.643.152-1.959.148-3.805.444-4.996 1.138l1.006 1.728zm22.397-2.041c1.31-.751 2.691-1.974 4.062-3.379 1.382-1.415 2.805-3.069 4.196-4.726 2.826-3.367 5.454-6.663 7.494-8.344l-1.272-1.544c-2.225 1.835-5.027 5.353-7.754 8.603-1.386 1.651-2.769 3.256-4.095 4.614-1.335 1.368-2.561 2.43-3.626 3.042l.995 1.734zm15.68-16.395c11.037-7.539 18.586-12.508 23.838-16.341 5.254-3.834 8.339-6.622 10.385-9.842l-1.688-1.073c-1.834 2.887-4.659 5.492-9.876 9.3-5.219 3.809-12.703 8.733-23.787 16.304l1.128 1.652zm34.223-26.183c3.839-6.044 8.176-10.948 21.105-38.268l-1.808-.856c-12.868 27.193-17.14 31.998-20.985 38.051l1.688 1.073zm20.979-38.067c1.579-1.954 12.693-15.147 14.346-17.146l-1.541-1.275c-1.612 1.949-12.78 15.207-14.361 17.163l1.556 1.258zm14.346-17.146c1.073-1.297 2.213-2.539 3.376-3.796 1.157-1.252 2.339-2.522 3.467-3.849l-1.524-1.295c-1.095 1.288-2.245 2.525-3.412 3.786-1.161 1.256-2.336 2.534-3.448 3.879l1.541 1.275zm6.843-7.645c1.833-2.157 3.394-4.498 4.909-6.785 1.525-2.303 3.002-4.548 4.702-6.604l-1.541-1.275c-1.781 2.154-3.317 4.493-4.829 6.775-1.521 2.297-3.021 4.541-4.765 6.594l1.524 1.295zm9.611-13.389c3.104-3.752 5.568-7.966 7.839-12.234 2.289-4.303 4.347-8.591 6.71-12.677l-1.731-1.001c-2.382 4.117-4.513 8.542-6.745 12.739-2.251 4.231-4.641 8.303-7.614 11.898l1.541 1.275zm14.549-24.911c.773-1.337 1.423-2.671 2.066-3.892.655-1.24 1.332-2.422 2.215-3.583l-1.592-1.211c-.98 1.29-1.717 2.583-2.392 3.861-.685 1.299-1.279 2.529-2.028 3.824l1.731 1.001zm4.281-7.475c4.484-5.898 8.154-12.73 12.096-18.811l-1.678-1.088c-4.079 6.29-7.573 12.853-12.01 18.688l1.592 1.211zm12.096-18.811c2.216-3.417 3.706-7.003 5.013-10.61 1.321-3.643 2.428-7.224 3.925-10.837l-1.848-.765c-1.516 3.66-2.681 7.4-3.957 10.92-1.289 3.556-2.718 6.976-4.811 10.204l1.678 1.088zm8.938-21.447c.473-1.143 1.017-2.307 1.583-3.509.563-1.195 1.147-2.428 1.682-3.68 1.07-2.5 1.981-5.147 2.184-7.904l-1.994-.147c-.18 2.429-.989 4.837-2.028 7.265-.519 1.212-1.086 2.41-1.653 3.615-.564 1.197-1.128 2.402-1.622 3.595l1.848.765zm5.449-15.093c.193-2.607.532-5.269.83-7.988.296-2.703.548-5.442.548-8.125h-2c0 2.569-.241 5.218-.536 7.907-.292 2.671-.64 5.404-.836 8.059l1.994.147zm-279.97 268.124c-1.541-.944-3.087-1.546-4.393-2.151-1.334-.618-2.524-1.277-3.625-2.382l-1.417 1.411c1.346 1.351 2.784 2.129 4.202 2.786 1.447.67 2.78 1.179 4.189 2.042l1.044-1.706zm-8.018-4.533c-.717-.72-1.634-1.3-2.491-1.801-.902-.526-1.708-.949-2.41-1.423l-1.119 1.657c.773.522 1.725 1.029 2.521 1.494.841.49 1.562.962 2.082 1.484l1.417-1.411zm-4.901-3.224c-.284-.192-.683-.447-1.109-.723-.434-.281-.91-.592-1.375-.911-.466-.32-.909-.641-1.277-.939-.382-.309-.629-.551-.749-.711l-1.602 1.197c.274.367.681.736 1.093 1.069.426.345.916.698 1.403 1.032.488.336.983.659 1.42.942.444.287.814.524 1.077.701l1.119-1.657zm-4.51-3.284c-1.095-1.465-2.469-2.245-3.798-2.869-1.373-.644-2.587-1.085-3.774-1.908l-1.14 1.643c1.371.951 2.88 1.52 4.065 2.076 1.228.576 2.245 1.185 3.045 2.255l1.602-1.197zm-7.572-4.777c-1.521-1.055-2.946-2.269-4.407-3.526-1.448-1.247-2.936-2.54-4.529-3.692l-1.172 1.621c1.511 1.092 2.93 2.324 4.396 3.586 1.455 1.252 2.953 2.531 4.572 3.654l1.14-1.643zm-8.936-7.218c-.893-.645-1.836-1.626-2.788-2.728a84.523 84.523 0 01-1.385-1.66c-.448-.547-.889-1.089-1.304-1.575l-1.521 1.298c.398.467.823.988 1.277 1.544a89.41 89.41 0 001.419 1.7c.971 1.125 2.04 2.254 3.13 3.042l1.172-1.621zm-5.477-5.963c-.5-.586-1.055-1.096-1.552-1.559-.511-.476-.967-.907-1.36-1.387l-1.548 1.267c.491.599 1.043 1.116 1.545 1.584.518.482.983.912 1.394 1.393l1.521-1.298zm-2.912-2.946c-.54-.66-.956-1.401-1.397-2.226-.428-.801-.89-1.704-1.489-2.542l-1.628 1.163c.506.707.899 1.472 1.353 2.322.442.827.937 1.724 1.613 2.55l1.548-1.267zm-2.886-4.768c-.444-.621-.831-1.551-1.17-2.728-.334-1.164-.602-2.495-.842-3.871-.119-.686-.231-1.376-.341-2.059-.11-.68-.218-1.354-.329-1.996-.22-1.272-.46-2.476-.767-3.42l-1.902.619c.259.794.479 1.873.698 3.142.109.628.215 1.29.325 1.974.11.681.224 1.384.346 2.084.244 1.397.526 2.811.89 4.079.361 1.254.823 2.442 1.464 3.339l1.628-1.163zm-3.449-14.074c-.771-2.372-.786-4.648-.82-7.087-.033-2.406-.086-4.967-1.076-7.629l-1.875.697c.855 2.299.918 4.536.951 6.959.033 2.389.038 4.971.918 7.679l1.902-.619zm-1.896-14.716c-2.885-7.757-6.132-15.991-6.132-23.83h-2c0 8.279 3.419 16.896 6.257 24.527l1.875-.697zm-6.132-23.83c0-4.266-.303-7.067-.525-9.803-.22-2.719-.366-5.416-.072-9.558l-1.995-.142c-.304 4.274-.152 7.078.074 9.862.225 2.769.518 5.475.518 9.641h2zm-.597-19.361c.085-1.184-.32-2.33-.857-3.367-.54-1.041-1.275-2.084-1.967-3.061-.71-1.003-1.376-1.939-1.867-2.848-.495-.913-.75-1.689-.737-2.361l-2-.036c-.021 1.177.419 2.316.977 3.349.561 1.037 1.306 2.078 1.995 3.052.707.998 1.358 1.928 1.823 2.825.467.901.684 1.656.638 2.305l1.995.142zm-5.428-11.637c.017-.948.076-1.868.132-2.797.056-.92.11-1.85.11-2.774 0-1.859-.214-3.745-1.082-5.674l-1.824.821c.71 1.577.907 3.153.906 4.852a44.2 44.2 0 01-.106 2.654c-.056.916-.118 1.883-.136 2.882l2 .036zm-.84-11.245c-1.508-3.352-2.485-6.916-3.345-10.594-.853-3.647-1.603-7.464-2.641-11.158l-1.925.541c1.022 3.641 1.743 7.328 2.618 11.073.87 3.713 1.88 7.427 3.47 10.959l1.823-.821zm-5.986-21.752c-.874-3.112-1.463-7.239-2.05-11.459-.58-4.174-1.158-8.441-2.02-11.694l-1.932.512c.823 3.108 1.385 7.234 1.972 11.458.58 4.179 1.186 8.454 2.105 11.724l1.925-.541zm-4.07-23.153c-3.664-13.837-6.62-28.379-13.092-41.287l-1.788.897c6.351 12.666 9.24 26.901 12.948 40.902l1.933-.512zM69.2 102.748c-5.83-11.627-10.86-23.384-15.978-35.385l-1.84.784c5.115 11.994 10.168 23.807 16.03 35.498l1.788-.897zM53.22 67.363c-1.82-4.268-3.836-8.418-5.875-12.55l-1.794.885c2.038 4.13 4.032 8.236 5.829 12.45l1.84-.785zm-5.875-12.55c-.475-.963-.847-1.994-1.264-3.096-.409-1.078-.858-2.213-1.469-3.264l-1.73 1.004c.52.895.92 1.892 1.328 2.97.4 1.052.813 2.199 1.341 3.27l1.794-.884zm-2.733-6.36c-1.398-2.406-2.545-4.89-3.765-7.425-1.212-2.518-2.49-5.07-4.12-7.513l-1.663 1.11c1.547 2.319 2.773 4.76 3.98 7.27 1.2 2.493 2.391 5.07 3.839 7.562l1.73-1.005zm-7.885-14.938c-1.172-1.756-2.438-3.412-3.675-5.038-1.243-1.635-2.46-3.242-3.571-4.944l-1.674 1.095c1.156 1.769 2.414 3.43 3.654 5.06 1.245 1.638 2.471 3.242 3.603 4.938l1.663-1.11zm-7.246-9.982C26.097 18.356 22.347 13.381 18 9.017l-1.417 1.412c4.22 4.235 7.886 9.092 11.225 14.199l1.674-1.095zM18 9.017c-1.369-1.374-2.564-2.805-3.808-4.268-1.236-1.453-2.515-2.93-4.01-4.327L8.818 1.883c1.403 1.31 2.617 2.71 3.851 4.162 1.226 1.44 2.478 2.941 3.915 4.384L18 9.017zM437.285 37.08c.535-5.377.57-10.65 2.401-15.455l-1.869-.712c-1.956 5.134-2.013 10.85-2.522 15.968l1.99.199zm2.401-15.455c.786-2.066 1.079-4.107 1.079-6.266h-2c0 1.968-.265 3.76-.948 5.554l1.869.712zm1.079-6.266c0-1.98-.052-4.122-.819-6.193l-1.875.694c.629 1.7.694 3.517.694 5.499h2zm-.819-6.193c-.334-.905-.825-1.744-1.243-2.484-.435-.77-.804-1.453-1.023-2.163l-1.911.59c.291.943.764 1.797 1.193 2.556.445.79.842 1.474 1.109 2.195l1.875-.694z"/></symbol><symbol viewBox="0 0 16 18" id="mark-cafe" xmlns="http://www.w3.org/2000/svg"><path d="M6 .5v2.408H5V.5H4v2.408H3V.5H2v3.582c0 1.007.6 1.874 1.463 2.267V17.5h2.074V6.35A2.491 2.491 0 007 4.081V.5H6zm2 0v17h2.667V9.338C11.485 8.757 12 7.911 12 6.971V3.677C12 1.922 10.21.5 8 .5z"/></symbol><symbol viewBox="0 0 16 17" id="mark-hospital" xmlns="http://www.w3.org/2000/svg"><g clip-path="url(#qclip0)"><path fill-rule="evenodd" clip-rule="evenodd" d="M6.188 1.071a1 1 0 00-1 1V5.76H1.5a1 1 0 00-1 1v3.625a1 1 0 001 1h3.688v3.687a1 1 0 001 1h3.625a1 1 0 001-1v-3.687H14.5a1 1 0 001-1V6.759a1 1 0 00-1-1h-3.688V2.07a1 1 0 00-1-1H6.188z"/></g><defs><clipPath id="qclip0"><path transform="translate(0 .5)" d="M0 0h16.001v16.015H0z"/></clipPath></defs></symbol><symbol viewBox="0 0 54 73" id="mark-park" xmlns="http://www.w3.org/2000/svg"><path d="M26.964 0C12.461 0 .662 11.799.662 26.302c0 17.998 23.538 44.42 24.54 45.537a2.369 2.369 0 003.524 0c1.002-1.116 24.54-27.539 24.54-45.537C53.266 11.799 41.466 0 26.964 0z"/><path d="M38.93 24.966a3.034 3.034 0 00-1.734-2.79A2.15 2.15 0 0035.03 20.2c-.172.014-.34.049-.503.104a2.08 2.08 0 00-3.467-1.352 2.167 2.167 0 00-4.333 0s.07.034.07.086a2.115 2.115 0 00-3.468 1.283 2.586 2.586 0 00-.849-.121 2.6 2.6 0 00-2.427 3.588 2.583 2.583 0 000 4.974 2.582 2.582 0 005.01-.398c.317.277.71.45 1.127.502v8.667l-2.86 1.733h8.666l-2.773-1.733v-3.467a11.787 11.787 0 014.801-3.466 2.583 2.583 0 003.172-2.566 2.515 2.515 0 000-.277 3.034 3.034 0 001.733-2.79zm-9.707 7.818V26.82a2.652 2.652 0 002.305 1.352h.486c.027.763.388 1.472.987 1.942a12.568 12.568 0 00-3.778 2.669z"/></symbol><symbol viewBox="0 0 54 73" id="mark-pharmacy" xmlns="http://www.w3.org/2000/svg"><path d="M26.964 0C12.461 0 .662 11.799.662 26.302c0 17.998 23.538 44.42 24.54 45.537a2.369 2.369 0 003.524 0c1.002-1.116 24.54-27.539 24.54-45.537C53.266 11.799 41.466 0 26.964 0z"/><path d="M36.684 18.977a6.143 6.143 0 00-4.373-1.811 6.143 6.143 0 00-4.372 1.811l-4.203 4.202 8.745 8.745 4.203-4.202a6.19 6.19 0 000-8.745zm-13.845 5.099l-4.203 4.202a6.19 6.19 0 000 8.745 6.143 6.143 0 004.373 1.812 6.144 6.144 0 004.372-1.812l4.203-4.202-8.745-8.745z"/></symbol><symbol viewBox="0 0 16 17" id="mark-rest" xmlns="http://www.w3.org/2000/svg"><path d="M11.98 9.236c.505 0 .968.247 1.24.661l.143.218h.267c.742 0 1.348-.586 1.351-1.307L15 4.864l-4.114-.024a.381.381 0 01-.32-.173 2.332 2.332 0 00.847-1.796 2.32 2.32 0 00-.755-1.715 2.462 2.462 0 00-1.8-.653C7.605.559 6.585 1.558 6.536 2.776a2.35 2.35 0 00.847 1.891.381.381 0 01-.319.177L3 4.815V16.5h11.952l.024-3.966c.004-.718-.593-1.31-1.33-1.32h-.283l-.143.217c-.284.434-.77.68-1.299.66-.755-.028-1.373-.625-1.409-1.358-.018-.396.125-.77.405-1.055.28-.285.658-.442 1.064-.442z"/></symbol><symbol viewBox="0 0 18 17" id="mark-school" xmlns="http://www.w3.org/2000/svg"><path d="M9 12.19L3 9.5v3.551L9 15.5l6-2.449V9.5l-6 2.69z"/><path d="M18 6.205L9 1.5 0 6.205l9 4.705 6.881-3.598V11.5h1.056V6.76L18 6.205z"/></symbol><symbol viewBox="0 0 21 35" id="mouse" xmlns="http://www.w3.org/2000/svg"><path d="M20.25 27.566l-10.054 6.559L0 27.565V6.896L3.115 4.79l3.54-2.395L10.196 0 20.25 6.896v20.67zM10.125 6v8.25"/></symbol><symbol viewBox="0 0 12 14" id="phone" xmlns="http://www.w3.org/2000/svg"><path d="M10.656 9.548c-.778-.671-1.567-1.078-2.335-.408l-.46.406c-.335.294-.959 1.669-3.372-1.134-2.412-2.799-.977-3.234-.64-3.526l.46-.406c.765-.672.477-1.518-.075-2.39l-.332-.527C3.348.693 2.745.123 1.979.794l-.414.366C1.226 1.409.28 2.218.05 3.757c-.276 1.845.595 3.959 2.593 6.278C4.637 12.355 6.59 13.52 8.44 13.5a3.88 3.88 0 002.756-1.153l.416-.366c.764-.67.29-1.353-.49-2.026l-.467-.407z"/></symbol></svg>