<svg width="1920" height="923" viewBox="0 0 1920 923" fill="none" xmlns="http://www.w3.org/2000/svg" xmlns:xlink="http://www.w3.org/1999/xlink">
<rect width="1920" height="923" fill="url(#pattern0)"/>
<g class="frukt-path">
<path d="M170.5 887L167 868.5L245 816L252 820.5L282.5 797L281.5 793L289.5 787.5L288.5 786.5L313 770L314 771L323.5 765L322.5 764L347 747.5L348 748.5L357.5 742.5L371 750.5L373.5 761.5L397 762.5C396.333 761.333 395.7 758.5 398.5 756.5C400.398 755.144 401.178 754.937 401.431 755.1L398.5 738L417.5 732L420.5 736.5C421.833 736 425 735.6 427 738C429 740.4 431.167 743.667 432 745V748.5L437.5 758.5C438.5 758.333 440.9 758.7 442.5 761.5C444.1 764.3 445.5 767.333 446 768.5V774.5L450.5 782C452 781.333 455.4 780.7 457 783.5C458.6 786.3 460.333 791 461 793L460 797.5L464 805C465.333 804 468.5 802.6 470.5 805C472.5 807.4 474.667 811.667 475.5 813.5V821L480 846.5L483.5 846V843L496.5 839L498.5 843L506.5 840L515.5 853L517.5 873.5L488.5 882.5C486.833 884.167 473.5 886.5 473.5 886.5L449 896.5L442.5 898.5L181 906L162 890.5L170.5 887Z" fill="white" />
</g>
<path d="M769 615.5L770 636.5C763.6 636.5 764.666 642.5 766 645.5L773.5 653.5L771.5 655V675L781.5 684V692.5L783 700.5L798 718.5L799 719.5L855.5 703.5C855.5 703.5 914.5 686.5 915.5 682C916.5 677.5 915 676.5 921.5 675C931.9 672.6 951.5 663 960 658.5L994.5 637.5V610.5L993 608.5V601L987.5 595H980.5L975 588V581.5L969 574.5H961.5L958.5 570.5L944 574.5V555L934 545L928 546.5L925.5 544L914 548V551L908.5 552V555L902 556.5V562L899 562.5V561L896.5 559L885 562V565L879.5 567V569L872.5 570.5V573L834 591.5L832.5 589.5L824 592.5V589.5L822.5 588L811 591.5V594.5L806 596V598.5L799 600.5V605.5L794 607V604.5L792.5 602.5L781 606.5V609.5L776 611.5V613L769 615.5Z" fill="white" fill-opacity="0.7"/>
<path d="M1274.5 324.5L1272 358L1285.5 367.5L1288.5 366.5L1329 344.5L1332 308.5L1368 290.5L1370.5 254L1358 246V243.5L1355.5 241.5V240L1349 235.5V233L1341.5 228L1338.5 229.5L1327 221L1310.5 229L1308 263L1315 270.5L1313 287.5L1290 274.5L1270.5 283L1268 319.5L1274.5 324.5Z" fill="white" fill-opacity="0.7"/>
<path d="M1063 454.5L1061.5 491L1068.5 494C1067.5 494.833 1064.7 496.7 1061.5 497.5C1058.3 498.3 1057.5 501.5 1057.5 503V534L1075 545.5L1124 520L1125.5 483.5L1128 486C1128 486 1141.5 490.167 1144 488.5L1189 465.5L1191 428L1178.5 420V416.5L1170 409V405.5L1161 399.5L1157.5 401.5L1145.5 393L1129.5 401.5L1128 438L1132 441.5C1132 441.5 1126 444.667 1125.5 445.5V453.5L1104 463.5V459L1096 453.5L1093 455.5L1080 445.5L1063 454.5Z" fill="white" fill-opacity="0.7"/>
<rect width="93" height="70" transform="translate(1215.5 383.25)" fill="white" fill-opacity="0.7"/>
<path d="M1327 155.5V158L1344 161L1357.5 134H1438.5L1456 139.5L1463 130L1463.5 115L1468.5 114L1470 99.5L1473 100.5L1478 80H1481.5L1483 67H1486L1488.5 56.5L1489.5 39V34L1478 32L1476.5 34H1473L1467 45.5L1397 36V19L1381.5 17L1379.5 19H1376.5L1372.5 28L1371 36L1365.5 44.5L1357.5 61.5L1356 80L1352 87L1350.5 89H1347.5L1341.5 99.5V106L1334 116.5V122.5L1330.5 130.5L1328 132.5V137H1326V154L1327 155.5Z" fill="white" fill-opacity="0.7"/>
<rect width="144" height="111" transform="translate(569.244 658)" fill="white" fill-opacity="0.7"/>
<rect x="227" y="631.75" width="172" height="34" rx="10" fill="white"/>
<path d="M253.236 655.826C253.116 655.826 253.014 655.784 252.93 655.7C252.858 655.628 252.822 655.532 252.822 655.412V653.99C251.034 653.99 249.672 653.606 248.736 652.838C247.8 652.07 247.254 650.9 247.098 649.328C247.086 649.22 247.08 649.046 247.08 648.806C247.08 648.458 247.086 648.212 247.098 648.068C247.182 646.544 247.722 645.386 248.718 644.594C249.726 643.802 251.094 643.406 252.822 643.406V642.164C252.822 642.032 252.858 641.93 252.93 641.858C253.014 641.786 253.116 641.75 253.236 641.75H254.172C254.292 641.75 254.388 641.792 254.46 641.876C254.544 641.948 254.586 642.044 254.586 642.164V643.406C256.314 643.406 257.676 643.802 258.672 644.594C259.68 645.386 260.22 646.544 260.292 648.068C260.316 648.38 260.328 648.59 260.328 648.698C260.328 648.806 260.316 649.016 260.292 649.328C260.16 650.9 259.62 652.07 258.672 652.838C257.724 653.606 256.362 653.99 254.586 653.99V655.412C254.586 655.532 254.544 655.628 254.46 655.7C254.388 655.784 254.292 655.826 254.172 655.826H253.236ZM252.822 644.936C251.61 644.936 250.674 645.194 250.014 645.71C249.366 646.226 248.994 647.036 248.898 648.14C248.886 648.26 248.88 648.416 248.88 648.608C248.88 648.872 248.886 649.082 248.898 649.238C248.958 650.342 249.318 651.152 249.978 651.668C250.65 652.184 251.598 652.442 252.822 652.442V644.936ZM254.568 652.442C257.076 652.442 258.39 651.374 258.51 649.238C258.522 649.118 258.528 648.932 258.528 648.68C258.528 648.44 258.522 648.26 258.51 648.14C258.39 647.036 258.006 646.226 257.358 645.71C256.71 645.194 255.78 644.936 254.568 644.936V652.442ZM263.18 658.67C263.06 658.67 262.958 658.628 262.874 658.544C262.802 658.472 262.766 658.376 262.766 658.256V646.304C262.766 646.184 262.802 646.088 262.874 646.016C262.958 645.932 263.06 645.89 263.18 645.89H264.008C264.128 645.89 264.224 645.932 264.296 646.016C264.38 646.088 264.422 646.184 264.422 646.304V647.096C265.094 646.172 266.078 645.71 267.374 645.71C268.634 645.71 269.576 646.106 270.2 646.898C270.836 647.69 271.178 648.71 271.226 649.958C271.238 650.09 271.244 650.294 271.244 650.57C271.244 650.846 271.238 651.05 271.226 651.182C271.178 652.418 270.836 653.438 270.2 654.242C269.564 655.034 268.622 655.43 267.374 655.43C266.126 655.43 265.154 654.98 264.458 654.08V658.256C264.458 658.376 264.422 658.472 264.35 658.544C264.278 658.628 264.182 658.67 264.062 658.67H263.18ZM266.996 653.972C267.848 653.972 268.466 653.708 268.85 653.18C269.246 652.652 269.462 651.956 269.498 651.092C269.51 650.972 269.516 650.798 269.516 650.57C269.516 648.302 268.676 647.168 266.996 647.168C266.168 647.168 265.544 647.444 265.124 647.996C264.716 648.536 264.494 649.184 264.458 649.94L264.44 650.624L264.458 651.326C264.482 652.034 264.71 652.652 265.142 653.18C265.574 653.708 266.192 653.972 266.996 653.972ZM280.805 645.89C280.901 645.89 280.985 645.926 281.057 645.998C281.129 646.07 281.165 646.154 281.165 646.25C281.165 646.334 281.135 646.442 281.075 646.574L277.655 654.674L277.493 655.034C277.181 655.79 276.893 656.414 276.629 656.906C276.365 657.398 276.035 657.812 275.639 658.148C275.243 658.496 274.775 658.67 274.235 658.67H273.551C273.431 658.67 273.329 658.634 273.245 658.562C273.173 658.49 273.137 658.388 273.137 658.256V657.644C273.137 657.524 273.173 657.422 273.245 657.338C273.329 657.266 273.431 657.23 273.551 657.23H274.019C274.283 657.23 274.499 657.176 274.667 657.068C274.835 656.972 274.985 656.804 275.117 656.564C275.261 656.324 275.435 655.958 275.639 655.466L275.945 654.728L272.417 646.574C272.357 646.418 272.327 646.316 272.327 646.268C272.339 646.16 272.381 646.07 272.453 645.998C272.525 645.926 272.609 645.89 272.705 645.89H273.551C273.755 645.89 273.905 645.992 274.001 646.196L276.755 652.802L279.545 646.196C279.629 645.992 279.779 645.89 279.995 645.89H280.805ZM290.792 654.728C290.852 654.8 290.882 654.878 290.882 654.962C290.882 655.046 290.846 655.118 290.774 655.178C290.714 655.226 290.63 655.25 290.522 655.25H289.424C289.232 655.25 289.076 655.16 288.956 654.98L286.346 651.218H284.654V654.836C284.654 654.956 284.612 655.058 284.528 655.142C284.456 655.214 284.36 655.25 284.24 655.25H283.394C283.274 655.25 283.172 655.214 283.088 655.142C283.016 655.058 282.98 654.956 282.98 654.836V646.304C282.98 646.184 283.016 646.088 283.088 646.016C283.172 645.932 283.274 645.89 283.394 645.89H284.24C284.36 645.89 284.456 645.932 284.528 646.016C284.612 646.088 284.654 646.184 284.654 646.304V649.76H286.31L288.722 646.16C288.866 645.98 289.028 645.89 289.208 645.89H290.144C290.252 645.89 290.342 645.92 290.414 645.98C290.486 646.028 290.522 646.094 290.522 646.178C290.522 646.238 290.492 646.31 290.432 646.394L287.75 650.372L290.792 654.728ZM295.493 655.25C295.373 655.25 295.271 655.214 295.187 655.142C295.115 655.058 295.079 654.956 295.079 654.836V647.33H291.947C291.827 647.33 291.725 647.294 291.641 647.222C291.569 647.138 291.533 647.036 291.533 646.916V646.304C291.533 646.184 291.569 646.088 291.641 646.016C291.725 645.932 291.827 645.89 291.947 645.89H299.867C299.987 645.89 300.083 645.932 300.155 646.016C300.239 646.088 300.281 646.184 300.281 646.304V646.916C300.281 647.036 300.239 647.138 300.155 647.222C300.083 647.294 299.987 647.33 299.867 647.33H296.735V654.836C296.735 654.956 296.699 655.058 296.627 655.142C296.555 655.214 296.459 655.25 296.339 655.25H295.493ZM305.676 655.43C304.356 655.43 303.33 655.058 302.598 654.314C301.878 653.57 301.494 652.58 301.446 651.344L301.428 650.57L301.446 649.796C301.494 648.572 301.884 647.588 302.616 646.844C303.348 646.088 304.368 645.71 305.676 645.71C306.984 645.71 308.004 646.088 308.736 646.844C309.468 647.588 309.858 648.572 309.906 649.796C309.918 649.928 309.924 650.186 309.924 650.57C309.924 650.954 309.918 651.212 309.906 651.344C309.858 652.58 309.468 653.57 308.736 654.314C308.016 655.058 306.996 655.43 305.676 655.43ZM305.676 654.044C306.432 654.044 307.026 653.804 307.458 653.324C307.902 652.844 308.142 652.154 308.178 651.254C308.19 651.134 308.196 650.906 308.196 650.57C308.196 650.234 308.19 650.006 308.178 649.886C308.142 648.986 307.902 648.296 307.458 647.816C307.026 647.336 306.432 647.096 305.676 647.096C304.92 647.096 304.32 647.336 303.876 647.816C303.432 648.296 303.198 648.986 303.174 649.886L303.156 650.57L303.174 651.254C303.198 652.154 303.432 652.844 303.876 653.324C304.32 653.804 304.92 654.044 305.676 654.044ZM312.592 655.25C312.472 655.25 312.37 655.214 312.286 655.142C312.214 655.058 312.178 654.956 312.178 654.836V646.304C312.178 646.184 312.214 646.088 312.286 646.016C312.37 645.932 312.472 645.89 312.592 645.89H316.336C317.44 645.89 318.28 646.118 318.856 646.574C319.444 647.018 319.738 647.63 319.738 648.41C319.738 648.926 319.642 649.328 319.45 649.616C319.258 649.892 318.964 650.132 318.568 650.336C319 650.516 319.336 650.816 319.576 651.236C319.828 651.656 319.954 652.106 319.954 652.586C319.954 653.45 319.648 654.11 319.036 654.566C318.436 655.022 317.584 655.25 316.48 655.25H312.592ZM316.228 649.868C316.816 649.868 317.278 649.742 317.614 649.49C317.95 649.238 318.118 648.884 318.118 648.428C318.118 647.984 317.956 647.672 317.632 647.492C317.308 647.3 316.84 647.204 316.228 647.204H313.834V649.868H316.228ZM316.336 653.936C316.936 653.936 317.404 653.822 317.74 653.594C318.088 653.366 318.262 653.03 318.262 652.586C318.262 652.106 318.106 651.758 317.794 651.542C317.482 651.314 316.996 651.2 316.336 651.2H313.834V653.936H316.336ZM322.682 655.25C322.562 655.25 322.46 655.214 322.376 655.142C322.304 655.058 322.268 654.956 322.268 654.836V646.304C322.268 646.184 322.304 646.088 322.376 646.016C322.46 645.932 322.562 645.89 322.682 645.89H323.546C323.666 645.89 323.762 645.932 323.834 646.016C323.918 646.088 323.96 646.184 323.96 646.304V648.95H325.832C327.02 648.95 327.902 649.232 328.478 649.796C329.066 650.348 329.36 651.134 329.36 652.154C329.36 653.21 329.048 653.99 328.424 654.494C327.812 654.998 326.876 655.25 325.616 655.25H322.682ZM331.052 655.25C330.932 655.25 330.83 655.214 330.746 655.142C330.674 655.058 330.638 654.956 330.638 654.836V646.304C330.638 646.184 330.674 646.088 330.746 646.016C330.83 645.932 330.932 645.89 331.052 645.89H331.916C332.036 645.89 332.132 645.932 332.204 646.016C332.288 646.088 332.33 646.184 332.33 646.304V654.836C332.33 654.956 332.288 655.058 332.204 655.142C332.132 655.214 332.036 655.25 331.916 655.25H331.052ZM325.67 653.9C326.414 653.9 326.948 653.768 327.272 653.504C327.608 653.24 327.776 652.79 327.776 652.154C327.776 651.518 327.608 651.05 327.272 650.75C326.948 650.45 326.414 650.3 325.67 650.3H323.942V653.9H325.67ZM342.968 645.89C343.064 645.89 343.148 645.926 343.22 645.998C343.304 646.07 343.346 646.154 343.346 646.25V654.836C343.346 654.956 343.304 655.058 343.22 655.142C343.148 655.214 343.052 655.25 342.932 655.25H342.086C341.966 655.25 341.864 655.214 341.78 655.142C341.708 655.058 341.672 654.956 341.672 654.836V648.302L336.686 654.98C336.554 655.16 336.398 655.25 336.218 655.25H335.408C335.3 655.25 335.204 655.214 335.12 655.142C335.048 655.058 335.012 654.968 335.012 654.872V646.304C335.012 646.184 335.048 646.088 335.12 646.016C335.204 645.932 335.306 645.89 335.426 645.89H336.29C336.41 645.89 336.506 645.932 336.578 646.016C336.662 646.088 336.704 646.184 336.704 646.304V652.802L341.672 646.16C341.804 645.98 341.96 645.89 342.14 645.89H342.968ZM339.224 644.648C338.264 644.648 337.574 644.438 337.154 644.018C336.734 643.598 336.524 643.058 336.524 642.398C336.524 642.302 336.554 642.224 336.614 642.164C336.674 642.092 336.758 642.056 336.866 642.056H337.478C337.586 642.056 337.67 642.092 337.73 642.164C337.79 642.224 337.82 642.302 337.82 642.398C337.82 643.154 338.288 643.532 339.224 643.532C340.16 643.532 340.628 643.154 340.628 642.398C340.628 642.302 340.658 642.224 340.718 642.164C340.778 642.092 340.862 642.056 340.97 642.056H341.6C341.708 642.056 341.792 642.092 341.852 642.164C341.912 642.224 341.942 642.302 341.942 642.398C341.942 643.046 341.726 643.586 341.294 644.018C340.874 644.438 340.184 644.648 339.224 644.648ZM354.173 655.43C352.889 655.43 351.881 655.07 351.149 654.35C350.429 653.618 350.045 652.598 349.997 651.29L349.979 650.57L349.997 649.85C350.045 648.542 350.429 647.528 351.149 646.808C351.881 646.076 352.889 645.71 354.173 645.71C355.037 645.71 355.769 645.866 356.369 646.178C356.969 646.49 357.413 646.874 357.701 647.33C358.001 647.786 358.163 648.242 358.187 648.698C358.199 648.818 358.163 648.914 358.079 648.986C357.995 649.058 357.893 649.094 357.773 649.094H356.909C356.789 649.094 356.699 649.07 356.639 649.022C356.579 648.974 356.519 648.878 356.459 648.734C356.255 648.158 355.967 647.75 355.595 647.51C355.223 647.258 354.755 647.132 354.191 647.132C353.447 647.132 352.853 647.366 352.409 647.834C351.977 648.29 351.743 648.992 351.707 649.94L351.689 650.588L351.707 651.2C351.743 652.16 351.977 652.868 352.409 653.324C352.841 653.78 353.435 654.008 354.191 654.008C354.755 654.008 355.223 653.888 355.595 653.648C355.967 653.396 356.255 652.982 356.459 652.406C356.519 652.262 356.579 652.166 356.639 652.118C356.699 652.058 356.789 652.028 356.909 652.028H357.773C357.893 652.028 357.995 652.07 358.079 652.154C358.163 652.226 358.199 652.322 358.187 652.442C358.163 652.886 358.001 653.342 357.701 653.81C357.413 654.266 356.969 654.65 356.369 654.962C355.781 655.274 355.049 655.43 354.173 655.43ZM362.934 655.43C362.346 655.43 361.8 655.31 361.296 655.07C360.792 654.83 360.39 654.506 360.09 654.098C359.802 653.678 359.658 653.216 359.658 652.712C359.658 651.92 359.982 651.272 360.63 650.768C361.29 650.252 362.178 649.916 363.294 649.76L365.976 649.382V648.86C365.976 647.636 365.274 647.024 363.87 647.024C363.342 647.024 362.91 647.138 362.574 647.366C362.238 647.582 361.986 647.84 361.818 648.14C361.782 648.248 361.734 648.326 361.674 648.374C361.626 648.422 361.554 648.446 361.458 648.446H360.684C360.576 648.446 360.48 648.41 360.396 648.338C360.324 648.254 360.288 648.158 360.288 648.05C360.3 647.762 360.432 647.438 360.684 647.078C360.948 646.706 361.35 646.388 361.89 646.124C362.43 645.848 363.096 645.71 363.888 645.71C365.232 645.71 366.198 646.028 366.786 646.664C367.374 647.288 367.668 648.068 367.668 649.004V654.836C367.668 654.956 367.626 655.058 367.542 655.142C367.47 655.214 367.374 655.25 367.254 655.25H366.426C366.306 655.25 366.204 655.214 366.12 655.142C366.048 655.058 366.012 654.956 366.012 654.836V654.062C365.748 654.446 365.364 654.77 364.86 655.034C364.356 655.298 363.714 655.43 362.934 655.43ZM363.312 654.08C364.092 654.08 364.728 653.828 365.22 653.324C365.724 652.808 365.976 652.07 365.976 651.11V650.606L363.888 650.912C363.036 651.032 362.394 651.236 361.962 651.524C361.53 651.8 361.314 652.154 361.314 652.586C361.314 653.066 361.512 653.438 361.908 653.702C362.304 653.954 362.772 654.08 363.312 654.08ZM369.716 657.23C369.596 657.23 369.494 657.188 369.41 657.104C369.338 657.032 369.302 656.936 369.302 656.816V654.224C369.302 654.104 369.338 654.008 369.41 653.936C369.494 653.852 369.596 653.81 369.716 653.81H369.806C370.31 653.798 370.688 653.378 370.94 652.55C371.204 651.722 371.336 650.408 371.336 648.608V646.304C371.336 646.184 371.372 646.088 371.444 646.016C371.528 645.932 371.63 645.89 371.75 645.89H377.492C377.612 645.89 377.708 645.932 377.78 646.016C377.864 646.088 377.906 646.184 377.906 646.304V653.774H378.752C378.872 653.774 378.968 653.816 379.04 653.9C379.124 653.972 379.166 654.068 379.166 654.188V656.816C379.166 656.936 379.124 657.032 379.04 657.104C378.968 657.188 378.872 657.23 378.752 657.23H377.906C377.786 657.23 377.684 657.188 377.6 657.104C377.528 657.032 377.492 656.936 377.492 656.816V655.25H370.976V656.816C370.976 656.936 370.934 657.032 370.85 657.104C370.778 657.188 370.682 657.23 370.562 657.23H369.716ZM376.232 653.774V647.33H372.974V648.806C372.974 651.206 372.632 652.874 371.948 653.81L376.232 653.774Z" fill="#333333"/>
<rect x="678.988" y="483.924" width="172" height="34" rx="10" fill="white"/>
<path d="M704.968 507.424C704.848 507.424 704.746 507.388 704.662 507.316C704.59 507.232 704.554 507.13 704.554 507.01V495.256C704.554 495.124 704.59 495.022 704.662 494.95C704.746 494.866 704.848 494.824 704.968 494.824H711.898C712.03 494.824 712.132 494.866 712.204 494.95C712.288 495.022 712.33 495.124 712.33 495.256V495.976C712.33 496.096 712.288 496.198 712.204 496.282C712.132 496.354 712.03 496.39 711.898 496.39H706.318V507.01C706.318 507.13 706.276 507.232 706.192 507.316C706.108 507.388 706.006 507.424 705.886 507.424H704.968ZM715.344 507.604C714.024 507.604 712.998 507.232 712.266 506.488C711.546 505.744 711.162 504.754 711.114 503.518L711.096 502.744L711.114 501.97C711.162 500.746 711.552 499.762 712.284 499.018C713.016 498.262 714.036 497.884 715.344 497.884C716.652 497.884 717.672 498.262 718.404 499.018C719.136 499.762 719.526 500.746 719.574 501.97C719.586 502.102 719.592 502.36 719.592 502.744C719.592 503.128 719.586 503.386 719.574 503.518C719.526 504.754 719.136 505.744 718.404 506.488C717.684 507.232 716.664 507.604 715.344 507.604ZM715.344 506.218C716.1 506.218 716.694 505.978 717.126 505.498C717.57 505.018 717.81 504.328 717.846 503.428C717.858 503.308 717.864 503.08 717.864 502.744C717.864 502.408 717.858 502.18 717.846 502.06C717.81 501.16 717.57 500.47 717.126 499.99C716.694 499.51 716.1 499.27 715.344 499.27C714.588 499.27 713.988 499.51 713.544 499.99C713.1 500.47 712.866 501.16 712.842 502.06L712.824 502.744L712.842 503.428C712.866 504.328 713.1 505.018 713.544 505.498C713.988 505.978 714.588 506.218 715.344 506.218ZM722.278 510.844C722.158 510.844 722.056 510.802 721.972 510.718C721.9 510.646 721.864 510.55 721.864 510.43V498.478C721.864 498.358 721.9 498.262 721.972 498.19C722.056 498.106 722.158 498.064 722.278 498.064H723.106C723.226 498.064 723.322 498.106 723.394 498.19C723.478 498.262 723.52 498.358 723.52 498.478V499.27C724.192 498.346 725.176 497.884 726.472 497.884C727.732 497.884 728.674 498.28 729.298 499.072C729.934 499.864 730.276 500.884 730.324 502.132C730.336 502.264 730.342 502.468 730.342 502.744C730.342 503.02 730.336 503.224 730.324 503.356C730.276 504.592 729.934 505.612 729.298 506.416C728.662 507.208 727.72 507.604 726.472 507.604C725.224 507.604 724.252 507.154 723.556 506.254V510.43C723.556 510.55 723.52 510.646 723.448 510.718C723.376 510.802 723.28 510.844 723.16 510.844H722.278ZM726.094 506.146C726.946 506.146 727.564 505.882 727.948 505.354C728.344 504.826 728.56 504.13 728.596 503.266C728.608 503.146 728.614 502.972 728.614 502.744C728.614 500.476 727.774 499.342 726.094 499.342C725.266 499.342 724.642 499.618 724.222 500.17C723.814 500.71 723.592 501.358 723.556 502.114L723.538 502.798L723.556 503.5C723.58 504.208 723.808 504.826 724.24 505.354C724.672 505.882 725.29 506.146 726.094 506.146ZM736.402 507.604C735.082 507.604 734.056 507.232 733.324 506.488C732.604 505.744 732.22 504.754 732.172 503.518L732.154 502.744L732.172 501.97C732.22 500.746 732.61 499.762 733.342 499.018C734.074 498.262 735.094 497.884 736.402 497.884C737.71 497.884 738.73 498.262 739.462 499.018C740.194 499.762 740.584 500.746 740.632 501.97C740.644 502.102 740.65 502.36 740.65 502.744C740.65 503.128 740.644 503.386 740.632 503.518C740.584 504.754 740.194 505.744 739.462 506.488C738.742 507.232 737.722 507.604 736.402 507.604ZM736.402 506.218C737.158 506.218 737.752 505.978 738.184 505.498C738.628 505.018 738.868 504.328 738.904 503.428C738.916 503.308 738.922 503.08 738.922 502.744C738.922 502.408 738.916 502.18 738.904 502.06C738.868 501.16 738.628 500.47 738.184 499.99C737.752 499.51 737.158 499.27 736.402 499.27C735.646 499.27 735.046 499.51 734.602 499.99C734.158 500.47 733.924 501.16 733.9 502.06L733.882 502.744L733.9 503.428C733.924 504.328 734.158 505.018 734.602 505.498C735.046 505.978 735.646 506.218 736.402 506.218ZM742.364 509.404C742.244 509.404 742.142 509.362 742.058 509.278C741.986 509.206 741.95 509.11 741.95 508.99V506.398C741.95 506.278 741.986 506.182 742.058 506.11C742.142 506.026 742.244 505.984 742.364 505.984H742.454C742.958 505.972 743.336 505.552 743.588 504.724C743.852 503.896 743.984 502.582 743.984 500.782V498.478C743.984 498.358 744.02 498.262 744.092 498.19C744.176 498.106 744.278 498.064 744.398 498.064H750.14C750.26 498.064 750.356 498.106 750.428 498.19C750.512 498.262 750.554 498.358 750.554 498.478V505.948H751.4C751.52 505.948 751.616 505.99 751.688 506.074C751.772 506.146 751.814 506.242 751.814 506.362V508.99C751.814 509.11 751.772 509.206 751.688 509.278C751.616 509.362 751.52 509.404 751.4 509.404H750.554C750.434 509.404 750.332 509.362 750.248 509.278C750.176 509.206 750.14 509.11 750.14 508.99V507.424H743.624V508.99C743.624 509.11 743.582 509.206 743.498 509.278C743.426 509.362 743.33 509.404 743.21 509.404H742.364ZM748.88 505.948V499.504H745.622V500.98C745.622 503.38 745.28 505.048 744.596 505.984L748.88 505.948ZM757.569 509.404C757.449 509.404 757.347 509.362 757.263 509.278C757.191 509.206 757.155 509.11 757.155 508.99V506.398C757.155 506.278 757.191 506.182 757.263 506.11C757.347 506.026 757.449 505.984 757.569 505.984H757.659C758.163 505.972 758.541 505.552 758.793 504.724C759.057 503.896 759.189 502.582 759.189 500.782V498.478C759.189 498.358 759.225 498.262 759.297 498.19C759.381 498.106 759.483 498.064 759.603 498.064H765.345C765.465 498.064 765.561 498.106 765.633 498.19C765.717 498.262 765.759 498.358 765.759 498.478V505.948H766.605C766.725 505.948 766.821 505.99 766.893 506.074C766.977 506.146 767.019 506.242 767.019 506.362V508.99C767.019 509.11 766.977 509.206 766.893 509.278C766.821 509.362 766.725 509.404 766.605 509.404H765.759C765.639 509.404 765.537 509.362 765.453 509.278C765.381 509.206 765.345 509.11 765.345 508.99V507.424H758.829V508.99C758.829 509.11 758.787 509.206 758.703 509.278C758.631 509.362 758.535 509.404 758.415 509.404H757.569ZM764.085 505.948V499.504H760.827V500.98C760.827 503.38 760.485 505.048 759.801 505.984L764.085 505.948ZM772.646 507.604C771.41 507.604 770.42 507.226 769.676 506.47C768.944 505.702 768.542 504.658 768.47 503.338L768.452 502.726L768.47 502.132C768.554 500.836 768.962 499.804 769.694 499.036C770.438 498.268 771.416 497.884 772.628 497.884C773.96 497.884 774.992 498.31 775.724 499.162C776.456 500.002 776.822 501.142 776.822 502.582V502.888C776.822 503.008 776.78 503.11 776.696 503.194C776.624 503.266 776.528 503.302 776.408 503.302H770.18V503.464C770.216 504.244 770.45 504.91 770.882 505.462C771.326 506.002 771.908 506.272 772.628 506.272C773.18 506.272 773.63 506.164 773.978 505.948C774.338 505.72 774.602 505.486 774.77 505.246C774.878 505.102 774.956 505.018 775.004 504.994C775.064 504.958 775.166 504.94 775.31 504.94H776.192C776.3 504.94 776.39 504.97 776.462 505.03C776.534 505.09 776.57 505.174 776.57 505.282C776.57 505.546 776.402 505.864 776.066 506.236C775.742 506.608 775.28 506.932 774.68 507.208C774.092 507.472 773.414 507.604 772.646 507.604ZM775.112 502.06V502.006C775.112 501.178 774.884 500.506 774.428 499.99C773.984 499.462 773.384 499.198 772.628 499.198C771.872 499.198 771.272 499.462 770.828 499.99C770.396 500.506 770.18 501.178 770.18 502.006V502.06H775.112ZM781.837 507.424C781.717 507.424 781.615 507.388 781.531 507.316C781.459 507.232 781.423 507.13 781.423 507.01V499.504H778.291C778.171 499.504 778.069 499.468 777.985 499.396C777.913 499.312 777.877 499.21 777.877 499.09V498.478C777.877 498.358 777.913 498.262 777.985 498.19C778.069 498.106 778.171 498.064 778.291 498.064H786.211C786.331 498.064 786.427 498.106 786.499 498.19C786.583 498.262 786.625 498.358 786.625 498.478V499.09C786.625 499.21 786.583 499.312 786.499 499.396C786.427 499.468 786.331 499.504 786.211 499.504H783.079V507.01C783.079 507.13 783.043 507.232 782.971 507.316C782.899 507.388 782.803 507.424 782.683 507.424H781.837ZM791.966 507.604C790.682 507.604 789.674 507.244 788.942 506.524C788.222 505.792 787.838 504.772 787.79 503.464L787.772 502.744L787.79 502.024C787.838 500.716 788.222 499.702 788.942 498.982C789.674 498.25 790.682 497.884 791.966 497.884C792.83 497.884 793.562 498.04 794.162 498.352C794.762 498.664 795.206 499.048 795.494 499.504C795.794 499.96 795.956 500.416 795.98 500.872C795.992 500.992 795.956 501.088 795.872 501.16C795.788 501.232 795.686 501.268 795.566 501.268H794.702C794.582 501.268 794.492 501.244 794.432 501.196C794.372 501.148 794.312 501.052 794.252 500.908C794.048 500.332 793.76 499.924 793.388 499.684C793.016 499.432 792.548 499.306 791.984 499.306C791.24 499.306 790.646 499.54 790.202 500.008C789.77 500.464 789.536 501.166 789.5 502.114L789.482 502.762L789.5 503.374C789.536 504.334 789.77 505.042 790.202 505.498C790.634 505.954 791.228 506.182 791.984 506.182C792.548 506.182 793.016 506.062 793.388 505.822C793.76 505.57 794.048 505.156 794.252 504.58C794.312 504.436 794.372 504.34 794.432 504.292C794.492 504.232 794.582 504.202 794.702 504.202H795.566C795.686 504.202 795.788 504.244 795.872 504.328C795.956 504.4 795.992 504.496 795.98 504.616C795.956 505.06 795.794 505.516 795.494 505.984C795.206 506.44 794.762 506.824 794.162 507.136C793.574 507.448 792.842 507.604 791.966 507.604ZM800.979 507.424C800.859 507.424 800.757 507.388 800.673 507.316C800.601 507.232 800.565 507.13 800.565 507.01V499.504H797.433C797.313 499.504 797.211 499.468 797.127 499.396C797.055 499.312 797.019 499.21 797.019 499.09V498.478C797.019 498.358 797.055 498.262 797.127 498.19C797.211 498.106 797.313 498.064 797.433 498.064H805.353C805.473 498.064 805.569 498.106 805.641 498.19C805.725 498.262 805.767 498.358 805.767 498.478V499.09C805.767 499.21 805.725 499.312 805.641 499.396C805.569 499.468 805.473 499.504 805.353 499.504H802.221V507.01C802.221 507.13 802.185 507.232 802.113 507.316C802.041 507.388 801.945 507.424 801.825 507.424H800.979ZM807.742 507.424C807.622 507.424 807.52 507.388 807.436 507.316C807.364 507.232 807.328 507.13 807.328 507.01V498.478C807.328 498.358 807.364 498.262 807.436 498.19C807.52 498.106 807.622 498.064 807.742 498.064H811.486C812.59 498.064 813.43 498.292 814.006 498.748C814.594 499.192 814.888 499.804 814.888 500.584C814.888 501.1 814.792 501.502 814.6 501.79C814.408 502.066 814.114 502.306 813.718 502.51C814.15 502.69 814.486 502.99 814.726 503.41C814.978 503.83 815.104 504.28 815.104 504.76C815.104 505.624 814.798 506.284 814.186 506.74C813.586 507.196 812.734 507.424 811.63 507.424H807.742ZM811.378 502.042C811.966 502.042 812.428 501.916 812.764 501.664C813.1 501.412 813.268 501.058 813.268 500.602C813.268 500.158 813.106 499.846 812.782 499.666C812.458 499.474 811.99 499.378 811.378 499.378H808.984V502.042H811.378ZM811.486 506.11C812.086 506.11 812.554 505.996 812.89 505.768C813.238 505.54 813.412 505.204 813.412 504.76C813.412 504.28 813.256 503.932 812.944 503.716C812.632 503.488 812.146 503.374 811.486 503.374H808.984V506.11H811.486ZM820.028 507.604C819.44 507.604 818.894 507.484 818.39 507.244C817.886 507.004 817.484 506.68 817.184 506.272C816.896 505.852 816.752 505.39 816.752 504.886C816.752 504.094 817.076 503.446 817.724 502.942C818.384 502.426 819.272 502.09 820.388 501.934L823.07 501.556V501.034C823.07 499.81 822.368 499.198 820.964 499.198C820.436 499.198 820.004 499.312 819.668 499.54C819.332 499.756 819.08 500.014 818.912 500.314C818.876 500.422 818.828 500.5 818.768 500.548C818.72 500.596 818.648 500.62 818.552 500.62H817.778C817.67 500.62 817.574 500.584 817.49 500.512C817.418 500.428 817.382 500.332 817.382 500.224C817.394 499.936 817.526 499.612 817.778 499.252C818.042 498.88 818.444 498.562 818.984 498.298C819.524 498.022 820.19 497.884 820.982 497.884C822.326 497.884 823.292 498.202 823.88 498.838C824.468 499.462 824.762 500.242 824.762 501.178V507.01C824.762 507.13 824.72 507.232 824.636 507.316C824.564 507.388 824.468 507.424 824.348 507.424H823.52C823.4 507.424 823.298 507.388 823.214 507.316C823.142 507.232 823.106 507.13 823.106 507.01V506.236C822.842 506.62 822.458 506.944 821.954 507.208C821.45 507.472 820.808 507.604 820.028 507.604ZM820.406 506.254C821.186 506.254 821.822 506.002 822.314 505.498C822.818 504.982 823.07 504.244 823.07 503.284V502.78L820.982 503.086C820.13 503.206 819.488 503.41 819.056 503.698C818.624 503.974 818.408 504.328 818.408 504.76C818.408 505.24 818.606 505.612 819.002 505.876C819.398 506.128 819.866 506.254 820.406 506.254Z" fill="#333333"/>
<rect x="971.869" y="277.25" width="192.131" height="34" rx="10" fill="white"/>
<path d="M1002.72 300.12C1002.75 300.168 1002.77 300.234 1002.77 300.318C1002.77 300.438 1002.73 300.54 1002.64 300.624C1002.57 300.708 1002.48 300.75 1002.36 300.75H1001.33C1001.21 300.75 1001.11 300.726 1001.04 300.678C1000.98 300.63 1000.92 300.564 1000.86 300.48L997.407 295.17H995.265V300.336C995.265 300.456 995.223 300.558 995.139 300.642C995.055 300.714 994.953 300.75 994.833 300.75H993.915C993.795 300.75 993.693 300.714 993.609 300.642C993.537 300.558 993.501 300.456 993.501 300.336V288.582C993.501 288.45 993.537 288.348 993.609 288.276C993.693 288.192 993.795 288.15 993.915 288.15H994.833C994.965 288.15 995.067 288.192 995.139 288.276C995.223 288.348 995.265 288.45 995.265 288.582V293.55L997.317 293.568L1000.5 288.438C1000.62 288.246 1000.83 288.15 1001.11 288.15H1002.09C1002.34 288.15 1002.46 288.27 1002.46 288.51C1002.46 288.57 1002.43 288.648 1002.37 288.744L998.919 294.252L1002.72 300.12ZM1008.07 300.93C1006.75 300.93 1005.72 300.558 1004.99 299.814C1004.27 299.07 1003.89 298.08 1003.84 296.844L1003.82 296.07L1003.84 295.296C1003.89 294.072 1004.28 293.088 1005.01 292.344C1005.74 291.588 1006.76 291.21 1008.07 291.21C1009.38 291.21 1010.4 291.588 1011.13 292.344C1011.86 293.088 1012.25 294.072 1012.3 295.296C1012.31 295.428 1012.32 295.686 1012.32 296.07C1012.32 296.454 1012.31 296.712 1012.3 296.844C1012.25 298.08 1011.86 299.07 1011.13 299.814C1010.41 300.558 1009.39 300.93 1008.07 300.93ZM1008.07 299.544C1008.83 299.544 1009.42 299.304 1009.85 298.824C1010.3 298.344 1010.54 297.654 1010.57 296.754C1010.58 296.634 1010.59 296.406 1010.59 296.07C1010.59 295.734 1010.58 295.506 1010.57 295.386C1010.54 294.486 1010.3 293.796 1009.85 293.316C1009.42 292.836 1008.83 292.596 1008.07 292.596C1007.31 292.596 1006.71 292.836 1006.27 293.316C1005.83 293.796 1005.59 294.486 1005.57 295.386L1005.55 296.07L1005.57 296.754C1005.59 297.654 1005.83 298.344 1006.27 298.824C1006.71 299.304 1007.31 299.544 1008.07 299.544ZM1023.79 291.39C1023.88 291.39 1023.97 291.426 1024.04 291.498C1024.11 291.558 1024.15 291.636 1024.15 291.732V300.354C1024.15 300.474 1024.11 300.57 1024.04 300.642C1023.97 300.714 1023.88 300.75 1023.77 300.75H1022.89C1022.77 300.75 1022.67 300.714 1022.6 300.642C1022.53 300.57 1022.49 300.474 1022.49 300.354V294.432L1020.19 298.788C1020.1 298.944 1020.02 299.064 1019.94 299.148C1019.86 299.22 1019.75 299.256 1019.59 299.256H1019.13C1018.98 299.256 1018.87 299.22 1018.78 299.148C1018.71 299.076 1018.63 298.956 1018.53 298.788L1016.25 294.54V300.354C1016.25 300.474 1016.21 300.57 1016.14 300.642C1016.07 300.714 1015.97 300.75 1015.85 300.75H1014.97C1014.85 300.75 1014.75 300.714 1014.68 300.642C1014.61 300.57 1014.57 300.474 1014.57 300.354V291.732C1014.57 291.648 1014.61 291.57 1014.68 291.498C1014.75 291.426 1014.84 291.39 1014.93 291.39H1015.85C1016.03 291.39 1016.18 291.486 1016.3 291.678L1019.36 297.402L1022.44 291.678C1022.53 291.486 1022.68 291.39 1022.89 291.39H1023.79ZM1031.54 304.17C1031.42 304.17 1031.32 304.128 1031.23 304.044C1031.16 303.972 1031.12 303.876 1031.12 303.756V300.75C1029.61 300.75 1028.47 300.39 1027.7 299.67C1026.94 298.938 1026.52 297.948 1026.44 296.7L1026.43 296.07L1026.44 295.44C1026.52 294.204 1026.94 293.22 1027.7 292.488C1028.48 291.756 1029.62 291.39 1031.12 291.39V288.384C1031.12 288.264 1031.16 288.168 1031.23 288.096C1031.32 288.012 1031.42 287.97 1031.54 287.97H1032.38C1032.5 287.97 1032.6 288.012 1032.67 288.096C1032.76 288.168 1032.8 288.264 1032.8 288.384V291.39C1034.3 291.39 1035.43 291.756 1036.2 292.488C1036.98 293.22 1037.41 294.204 1037.48 295.44C1037.49 295.572 1037.5 295.782 1037.5 296.07C1037.5 296.358 1037.49 296.568 1037.48 296.7C1037.41 297.948 1036.99 298.938 1036.22 299.67C1035.46 300.39 1034.32 300.75 1032.8 300.75V303.756C1032.8 303.876 1032.76 303.972 1032.67 304.044C1032.6 304.128 1032.5 304.17 1032.38 304.17H1031.54ZM1031.12 292.776C1029.22 292.776 1028.21 293.706 1028.12 295.566L1028.1 296.07C1028.1 297.186 1028.34 298.014 1028.82 298.554C1029.31 299.094 1030.08 299.364 1031.12 299.364V292.776ZM1032.8 299.364C1034.71 299.364 1035.71 298.434 1035.8 296.574C1035.82 296.454 1035.82 296.286 1035.82 296.07C1035.82 295.842 1035.82 295.674 1035.8 295.566C1035.71 293.706 1034.71 292.776 1032.8 292.776V299.364ZM1043.58 300.93C1042.26 300.93 1041.23 300.558 1040.5 299.814C1039.78 299.07 1039.4 298.08 1039.35 296.844L1039.33 296.07L1039.35 295.296C1039.4 294.072 1039.79 293.088 1040.52 292.344C1041.25 291.588 1042.27 291.21 1043.58 291.21C1044.89 291.21 1045.91 291.588 1046.64 292.344C1047.37 293.088 1047.76 294.072 1047.81 295.296C1047.82 295.428 1047.83 295.686 1047.83 296.07C1047.83 296.454 1047.82 296.712 1047.81 296.844C1047.76 298.08 1047.37 299.07 1046.64 299.814C1045.92 300.558 1044.9 300.93 1043.58 300.93ZM1043.58 299.544C1044.33 299.544 1044.93 299.304 1045.36 298.824C1045.8 298.344 1046.04 297.654 1046.08 296.754C1046.09 296.634 1046.1 296.406 1046.1 296.07C1046.1 295.734 1046.09 295.506 1046.08 295.386C1046.04 294.486 1045.8 293.796 1045.36 293.316C1044.93 292.836 1044.33 292.596 1043.58 292.596C1042.82 292.596 1042.22 292.836 1041.78 293.316C1041.33 293.796 1041.1 294.486 1041.08 295.386L1041.06 296.07L1041.08 296.754C1041.1 297.654 1041.33 298.344 1041.78 298.824C1042.22 299.304 1042.82 299.544 1043.58 299.544ZM1050.51 304.17C1050.39 304.17 1050.29 304.128 1050.21 304.044C1050.13 303.972 1050.1 303.876 1050.1 303.756V291.804C1050.1 291.684 1050.13 291.588 1050.21 291.516C1050.29 291.432 1050.39 291.39 1050.51 291.39H1051.34C1051.46 291.39 1051.56 291.432 1051.63 291.516C1051.71 291.588 1051.75 291.684 1051.75 291.804V292.596C1052.43 291.672 1053.41 291.21 1054.71 291.21C1055.97 291.21 1056.91 291.606 1057.53 292.398C1058.17 293.19 1058.51 294.21 1058.56 295.458C1058.57 295.59 1058.58 295.794 1058.58 296.07C1058.58 296.346 1058.57 296.55 1058.56 296.682C1058.51 297.918 1058.17 298.938 1057.53 299.742C1056.9 300.534 1055.95 300.93 1054.71 300.93C1053.46 300.93 1052.49 300.48 1051.79 299.58V303.756C1051.79 303.876 1051.75 303.972 1051.68 304.044C1051.61 304.128 1051.51 304.17 1051.39 304.17H1050.51ZM1054.33 299.472C1055.18 299.472 1055.8 299.208 1056.18 298.68C1056.58 298.152 1056.79 297.456 1056.83 296.592C1056.84 296.472 1056.85 296.298 1056.85 296.07C1056.85 293.802 1056.01 292.668 1054.33 292.668C1053.5 292.668 1052.88 292.944 1052.46 293.496C1052.05 294.036 1051.83 294.684 1051.79 295.44L1051.77 296.124L1051.79 296.826C1051.81 297.534 1052.04 298.152 1052.47 298.68C1052.91 299.208 1053.52 299.472 1054.33 299.472ZM1063.66 300.75C1063.54 300.75 1063.44 300.714 1063.36 300.642C1063.29 300.558 1063.25 300.456 1063.25 300.336V292.83H1060.12C1060 292.83 1059.9 292.794 1059.81 292.722C1059.74 292.638 1059.7 292.536 1059.7 292.416V291.804C1059.7 291.684 1059.74 291.588 1059.81 291.516C1059.9 291.432 1060 291.39 1060.12 291.39H1068.04C1068.16 291.39 1068.25 291.432 1068.33 291.516C1068.41 291.588 1068.45 291.684 1068.45 291.804V292.416C1068.45 292.536 1068.41 292.638 1068.33 292.722C1068.25 292.794 1068.16 292.83 1068.04 292.83H1064.91V300.336C1064.91 300.456 1064.87 300.558 1064.8 300.642C1064.73 300.714 1064.63 300.75 1064.51 300.75H1063.66ZM1082.24 300.228C1082.3 300.3 1082.33 300.378 1082.33 300.462C1082.33 300.546 1082.29 300.618 1082.22 300.678C1082.16 300.726 1082.07 300.75 1081.97 300.75H1080.87C1080.68 300.75 1080.52 300.66 1080.4 300.48L1077.79 296.718H1076.1V300.336C1076.1 300.456 1076.06 300.558 1075.97 300.642C1075.9 300.714 1075.8 300.75 1075.68 300.75H1074.84C1074.72 300.75 1074.62 300.714 1074.53 300.642C1074.46 300.558 1074.42 300.456 1074.42 300.336V291.804C1074.42 291.684 1074.46 291.588 1074.53 291.516C1074.62 291.432 1074.72 291.39 1074.84 291.39H1075.68C1075.8 291.39 1075.9 291.432 1075.97 291.516C1076.06 291.588 1076.1 291.684 1076.1 291.804V295.26H1077.75L1080.17 291.66C1080.31 291.48 1080.47 291.39 1080.65 291.39H1081.59C1081.7 291.39 1081.79 291.42 1081.86 291.48C1081.93 291.528 1081.97 291.594 1081.97 291.678C1081.97 291.738 1081.94 291.81 1081.88 291.894L1079.19 295.872L1082.24 300.228ZM1084.49 300.75C1084.37 300.75 1084.27 300.714 1084.18 300.642C1084.11 300.558 1084.08 300.456 1084.08 300.336V291.804C1084.08 291.684 1084.11 291.588 1084.18 291.516C1084.27 291.432 1084.37 291.39 1084.49 291.39H1088.23C1089.34 291.39 1090.18 291.618 1090.75 292.074C1091.34 292.518 1091.64 293.13 1091.64 293.91C1091.64 294.426 1091.54 294.828 1091.35 295.116C1091.16 295.392 1090.86 295.632 1090.47 295.836C1090.9 296.016 1091.23 296.316 1091.47 296.736C1091.73 297.156 1091.85 297.606 1091.85 298.086C1091.85 298.95 1091.55 299.61 1090.93 300.066C1090.33 300.522 1089.48 300.75 1088.38 300.75H1084.49ZM1088.13 295.368C1088.71 295.368 1089.18 295.242 1089.51 294.99C1089.85 294.738 1090.02 294.384 1090.02 293.928C1090.02 293.484 1089.85 293.172 1089.53 292.992C1089.21 292.8 1088.74 292.704 1088.13 292.704H1085.73V295.368H1088.13ZM1088.23 299.436C1088.83 299.436 1089.3 299.322 1089.64 299.094C1089.99 298.866 1090.16 298.53 1090.16 298.086C1090.16 297.606 1090 297.258 1089.69 297.042C1089.38 296.814 1088.89 296.7 1088.23 296.7H1085.73V299.436H1088.23ZM1096.78 300.93C1096.19 300.93 1095.64 300.81 1095.14 300.57C1094.63 300.33 1094.23 300.006 1093.93 299.598C1093.64 299.178 1093.5 298.716 1093.5 298.212C1093.5 297.42 1093.82 296.772 1094.47 296.268C1095.13 295.752 1096.02 295.416 1097.14 295.26L1099.82 294.882V294.36C1099.82 293.136 1099.12 292.524 1097.71 292.524C1097.18 292.524 1096.75 292.638 1096.42 292.866C1096.08 293.082 1095.83 293.34 1095.66 293.64C1095.62 293.748 1095.58 293.826 1095.52 293.874C1095.47 293.922 1095.4 293.946 1095.3 293.946H1094.53C1094.42 293.946 1094.32 293.91 1094.24 293.838C1094.17 293.754 1094.13 293.658 1094.13 293.55C1094.14 293.262 1094.27 292.938 1094.53 292.578C1094.79 292.206 1095.19 291.888 1095.73 291.624C1096.27 291.348 1096.94 291.21 1097.73 291.21C1099.07 291.21 1100.04 291.528 1100.63 292.164C1101.22 292.788 1101.51 293.568 1101.51 294.504V300.336C1101.51 300.456 1101.47 300.558 1101.38 300.642C1101.31 300.714 1101.22 300.75 1101.1 300.75H1100.27C1100.15 300.75 1100.05 300.714 1099.96 300.642C1099.89 300.558 1099.85 300.456 1099.85 300.336V299.562C1099.59 299.946 1099.21 300.27 1098.7 300.534C1098.2 300.798 1097.56 300.93 1096.78 300.93ZM1097.15 299.58C1097.93 299.58 1098.57 299.328 1099.06 298.824C1099.57 298.308 1099.82 297.57 1099.82 296.61V296.106L1097.73 296.412C1096.88 296.532 1096.24 296.736 1095.8 297.024C1095.37 297.3 1095.16 297.654 1095.16 298.086C1095.16 298.566 1095.35 298.938 1095.75 299.202C1096.15 299.454 1096.61 299.58 1097.15 299.58ZM1104.53 304.17C1104.41 304.17 1104.31 304.128 1104.22 304.044C1104.15 303.972 1104.11 303.876 1104.11 303.756V291.804C1104.11 291.684 1104.15 291.588 1104.22 291.516C1104.31 291.432 1104.41 291.39 1104.53 291.39H1105.36C1105.48 291.39 1105.57 291.432 1105.64 291.516C1105.73 291.588 1105.77 291.684 1105.77 291.804V292.596C1106.44 291.672 1107.43 291.21 1108.72 291.21C1109.98 291.21 1110.92 291.606 1111.55 292.398C1112.18 293.19 1112.53 294.21 1112.57 295.458C1112.59 295.59 1112.59 295.794 1112.59 296.07C1112.59 296.346 1112.59 296.55 1112.57 296.682C1112.53 297.918 1112.18 298.938 1111.55 299.742C1110.91 300.534 1109.97 300.93 1108.72 300.93C1107.47 300.93 1106.5 300.48 1105.81 299.58V303.756C1105.81 303.876 1105.77 303.972 1105.7 304.044C1105.63 304.128 1105.53 304.17 1105.41 304.17H1104.53ZM1108.34 299.472C1109.2 299.472 1109.81 299.208 1110.2 298.68C1110.59 298.152 1110.81 297.456 1110.85 296.592C1110.86 296.472 1110.86 296.298 1110.86 296.07C1110.86 293.802 1110.02 292.668 1108.34 292.668C1107.52 292.668 1106.89 292.944 1106.47 293.496C1106.06 294.036 1105.84 294.684 1105.81 295.44L1105.79 296.124L1105.81 296.826C1105.83 297.534 1106.06 298.152 1106.49 298.68C1106.92 299.208 1107.54 299.472 1108.34 299.472ZM1117.68 300.75C1117.56 300.75 1117.46 300.714 1117.38 300.642C1117.3 300.558 1117.27 300.456 1117.27 300.336V292.83H1114.14C1114.02 292.83 1113.91 292.794 1113.83 292.722C1113.76 292.638 1113.72 292.536 1113.72 292.416V291.804C1113.72 291.684 1113.76 291.588 1113.83 291.516C1113.91 291.432 1114.02 291.39 1114.14 291.39H1122.06C1122.18 291.39 1122.27 291.432 1122.34 291.516C1122.43 291.588 1122.47 291.684 1122.47 291.804V292.416C1122.47 292.536 1122.43 292.638 1122.34 292.722C1122.27 292.794 1122.18 292.83 1122.06 292.83H1118.92V300.336C1118.92 300.456 1118.89 300.558 1118.82 300.642C1118.74 300.714 1118.65 300.75 1118.53 300.75H1117.68ZM1126.64 300.93C1126.05 300.93 1125.51 300.81 1125 300.57C1124.5 300.33 1124.1 300.006 1123.8 299.598C1123.51 299.178 1123.36 298.716 1123.36 298.212C1123.36 297.42 1123.69 296.772 1124.34 296.268C1125 295.752 1125.88 295.416 1127 295.26L1129.68 294.882V294.36C1129.68 293.136 1128.98 292.524 1127.58 292.524C1127.05 292.524 1126.62 292.638 1126.28 292.866C1125.94 293.082 1125.69 293.34 1125.52 293.64C1125.49 293.748 1125.44 293.826 1125.38 293.874C1125.33 293.922 1125.26 293.946 1125.16 293.946H1124.39C1124.28 293.946 1124.19 293.91 1124.1 293.838C1124.03 293.754 1123.99 293.658 1123.99 293.55C1124.01 293.262 1124.14 292.938 1124.39 292.578C1124.65 292.206 1125.06 291.888 1125.6 291.624C1126.14 291.348 1126.8 291.21 1127.59 291.21C1128.94 291.21 1129.9 291.528 1130.49 292.164C1131.08 292.788 1131.37 293.568 1131.37 294.504V300.336C1131.37 300.456 1131.33 300.558 1131.25 300.642C1131.18 300.714 1131.08 300.75 1130.96 300.75H1130.13C1130.01 300.75 1129.91 300.714 1129.83 300.642C1129.75 300.558 1129.72 300.456 1129.72 300.336V299.562C1129.45 299.946 1129.07 300.27 1128.57 300.534C1128.06 300.798 1127.42 300.93 1126.64 300.93ZM1127.02 299.58C1127.8 299.58 1128.43 299.328 1128.93 298.824C1129.43 298.308 1129.68 297.57 1129.68 296.61V296.106L1127.59 296.412C1126.74 296.532 1126.1 296.736 1125.67 297.024C1125.24 297.3 1125.02 297.654 1125.02 298.086C1125.02 298.566 1125.22 298.938 1125.61 299.202C1126.01 299.454 1126.48 299.58 1127.02 299.58ZM1133.51 300.75C1133.39 300.75 1133.29 300.708 1133.21 300.624C1133.12 300.54 1133.08 300.438 1133.08 300.318V299.652C1133.08 299.532 1133.12 299.436 1133.19 299.364C1133.26 299.292 1133.35 299.256 1133.46 299.256C1134.03 299.232 1134.46 298.824 1134.74 298.032C1135.02 297.228 1135.17 295.92 1135.17 294.108V291.804C1135.17 291.684 1135.2 291.588 1135.28 291.516C1135.36 291.432 1135.46 291.39 1135.58 291.39H1141.31C1141.43 291.39 1141.52 291.432 1141.59 291.516C1141.68 291.588 1141.72 291.684 1141.72 291.804V300.336C1141.72 300.456 1141.68 300.558 1141.59 300.642C1141.52 300.714 1141.43 300.75 1141.31 300.75H1140.44C1140.32 300.75 1140.23 300.714 1140.15 300.642C1140.08 300.558 1140.05 300.456 1140.05 300.336V292.83H1136.81V294.306C1136.81 296.598 1136.54 298.248 1136.01 299.256C1135.49 300.252 1134.65 300.75 1133.51 300.75Z" fill="#333333"/>

<rect x="1084" y="89" width="192.131" height="34" rx="10" fill="white"/>
<path d="M1113.05 112.5C1112.93 112.5 1112.82 112.464 1112.74 112.392C1112.67 112.308 1112.63 112.206 1112.63 112.086V100.332C1112.63 100.2 1112.67 100.098 1112.74 100.026C1112.82 99.942 1112.93 99.9 1113.05 99.9H1120.88C1121.01 99.9 1121.11 99.942 1121.18 100.026C1121.27 100.098 1121.31 100.2 1121.31 100.332V101.052C1121.31 101.172 1121.27 101.274 1121.18 101.358C1121.11 101.43 1121.01 101.466 1120.88 101.466H1114.4V105.102H1117.96C1119.23 105.102 1120.22 105.432 1120.93 106.092C1121.64 106.74 1121.99 107.628 1121.99 108.756C1121.99 109.38 1121.84 109.98 1121.52 110.556C1121.22 111.12 1120.77 111.588 1120.16 111.96C1119.56 112.32 1118.82 112.5 1117.96 112.5H1113.05ZM1117.74 111.042C1118.49 111.042 1119.08 110.82 1119.53 110.376C1119.97 109.92 1120.19 109.362 1120.19 108.702C1120.19 108.042 1119.98 107.52 1119.56 107.136C1119.15 106.74 1118.55 106.542 1117.74 106.542H1114.4V111.042H1117.74ZM1131.87 103.14C1131.96 103.14 1132.05 103.176 1132.12 103.248C1132.2 103.32 1132.25 103.404 1132.25 103.5V112.086C1132.25 112.206 1132.2 112.308 1132.12 112.392C1132.05 112.464 1131.95 112.5 1131.83 112.5H1130.99C1130.87 112.5 1130.76 112.464 1130.68 112.392C1130.61 112.308 1130.57 112.206 1130.57 112.086V105.552L1125.59 112.23C1125.45 112.41 1125.3 112.5 1125.12 112.5H1124.31C1124.2 112.5 1124.1 112.464 1124.02 112.392C1123.95 112.308 1123.91 112.218 1123.91 112.122V103.554C1123.91 103.434 1123.95 103.338 1124.02 103.266C1124.1 103.182 1124.21 103.14 1124.33 103.14H1125.19C1125.31 103.14 1125.41 103.182 1125.48 103.266C1125.56 103.338 1125.6 103.434 1125.6 103.554V110.052L1130.57 103.41C1130.7 103.23 1130.86 103.14 1131.04 103.14H1131.87ZM1138.14 112.68C1137.26 112.68 1136.54 112.542 1135.96 112.266C1135.4 111.99 1134.98 111.654 1134.72 111.258C1134.47 110.862 1134.33 110.472 1134.32 110.088V110.052C1134.32 109.956 1134.36 109.878 1134.43 109.818C1134.5 109.758 1134.59 109.728 1134.68 109.728H1135.53C1135.74 109.728 1135.89 109.842 1135.96 110.07C1136.09 110.526 1136.35 110.85 1136.73 111.042C1137.13 111.222 1137.65 111.312 1138.28 111.312C1138.89 111.312 1139.4 111.186 1139.79 110.934C1140.19 110.682 1140.39 110.31 1140.39 109.818C1140.39 109.314 1140.24 108.942 1139.96 108.702C1139.68 108.45 1139.25 108.324 1138.66 108.324H1137.67C1137.56 108.324 1137.47 108.288 1137.4 108.216C1137.33 108.144 1137.29 108.048 1137.29 107.928V107.442C1137.29 107.322 1137.33 107.226 1137.4 107.154C1137.47 107.082 1137.56 107.046 1137.67 107.046H1138.55C1139.57 107.046 1140.08 106.644 1140.08 105.84C1140.08 105.408 1139.93 105.048 1139.61 104.76C1139.31 104.472 1138.82 104.328 1138.14 104.328C1137.48 104.328 1137 104.442 1136.7 104.67C1136.41 104.886 1136.2 105.234 1136.07 105.714C1136.02 105.834 1135.96 105.924 1135.89 105.984C1135.83 106.032 1135.74 106.056 1135.62 106.056H1134.81C1134.7 106.056 1134.61 106.026 1134.54 105.966C1134.47 105.894 1134.43 105.81 1134.43 105.714C1134.44 105.222 1134.59 104.766 1134.86 104.346C1135.14 103.926 1135.55 103.59 1136.1 103.338C1136.66 103.086 1137.33 102.96 1138.14 102.96C1138.98 102.96 1139.67 103.092 1140.21 103.356C1140.75 103.62 1141.14 103.95 1141.38 104.346C1141.62 104.742 1141.74 105.156 1141.74 105.588C1141.74 106.08 1141.65 106.482 1141.49 106.794C1141.33 107.094 1141.04 107.346 1140.62 107.55C1141.14 107.742 1141.5 108.042 1141.72 108.45C1141.95 108.858 1142.06 109.356 1142.06 109.944C1142.06 110.82 1141.7 111.498 1140.98 111.978C1140.26 112.446 1139.31 112.68 1138.14 112.68ZM1144.5 112.5C1144.38 112.5 1144.28 112.464 1144.2 112.392C1144.13 112.308 1144.09 112.206 1144.09 112.086V103.554C1144.09 103.434 1144.13 103.338 1144.2 103.266C1144.28 103.182 1144.38 103.14 1144.5 103.14H1145.37C1145.49 103.14 1145.58 103.182 1145.66 103.266C1145.74 103.338 1145.78 103.434 1145.78 103.554V107.01H1150.68V103.554C1150.68 103.434 1150.71 103.338 1150.79 103.266C1150.87 103.182 1150.97 103.14 1151.09 103.14H1151.94C1152.06 103.14 1152.15 103.182 1152.23 103.266C1152.31 103.338 1152.35 103.434 1152.35 103.554V112.086C1152.35 112.206 1152.31 112.308 1152.23 112.392C1152.15 112.464 1152.06 112.5 1151.94 112.5H1151.09C1150.97 112.5 1150.87 112.464 1150.79 112.392C1150.71 112.308 1150.68 112.206 1150.68 112.086V108.45H1145.78V112.086C1145.78 112.206 1145.74 112.308 1145.66 112.392C1145.58 112.464 1145.49 112.5 1145.37 112.5H1144.5ZM1158.8 112.68C1157.57 112.68 1156.58 112.302 1155.83 111.546C1155.1 110.778 1154.7 109.734 1154.63 108.414L1154.61 107.802L1154.63 107.208C1154.71 105.912 1155.12 104.88 1155.85 104.112C1156.6 103.344 1157.57 102.96 1158.79 102.96C1160.12 102.96 1161.15 103.386 1161.88 104.238C1162.61 105.078 1162.98 106.218 1162.98 107.658V107.964C1162.98 108.084 1162.94 108.186 1162.85 108.27C1162.78 108.342 1162.69 108.378 1162.57 108.378H1156.34V108.54C1156.37 109.32 1156.61 109.986 1157.04 110.538C1157.48 111.078 1158.07 111.348 1158.79 111.348C1159.34 111.348 1159.79 111.24 1160.14 111.024C1160.5 110.796 1160.76 110.562 1160.93 110.322C1161.04 110.178 1161.11 110.094 1161.16 110.07C1161.22 110.034 1161.32 110.016 1161.47 110.016H1162.35C1162.46 110.016 1162.55 110.046 1162.62 110.106C1162.69 110.166 1162.73 110.25 1162.73 110.358C1162.73 110.622 1162.56 110.94 1162.22 111.312C1161.9 111.684 1161.44 112.008 1160.84 112.284C1160.25 112.548 1159.57 112.68 1158.8 112.68ZM1161.27 107.136V107.082C1161.27 106.254 1161.04 105.582 1160.59 105.066C1160.14 104.538 1159.54 104.274 1158.79 104.274C1158.03 104.274 1157.43 104.538 1156.99 105.066C1156.55 105.582 1156.34 106.254 1156.34 107.082V107.136H1161.27ZM1168.91 112.68C1167.63 112.68 1166.62 112.32 1165.89 111.6C1165.17 110.868 1164.78 109.848 1164.74 108.54L1164.72 107.82L1164.74 107.1C1164.78 105.792 1165.17 104.778 1165.89 104.058C1166.62 103.326 1167.63 102.96 1168.91 102.96C1169.78 102.96 1170.51 103.116 1171.11 103.428C1171.71 103.74 1172.15 104.124 1172.44 104.58C1172.74 105.036 1172.9 105.492 1172.93 105.948C1172.94 106.068 1172.9 106.164 1172.82 106.236C1172.73 106.308 1172.63 106.344 1172.51 106.344H1171.65C1171.53 106.344 1171.44 106.32 1171.38 106.272C1171.32 106.224 1171.26 106.128 1171.2 105.984C1170.99 105.408 1170.71 105 1170.33 104.76C1169.96 104.508 1169.49 104.382 1168.93 104.382C1168.19 104.382 1167.59 104.616 1167.15 105.084C1166.72 105.54 1166.48 106.242 1166.45 107.19L1166.43 107.838L1166.45 108.45C1166.48 109.41 1166.72 110.118 1167.15 110.574C1167.58 111.03 1168.17 111.258 1168.93 111.258C1169.49 111.258 1169.96 111.138 1170.33 110.898C1170.71 110.646 1170.99 110.232 1171.2 109.656C1171.26 109.512 1171.32 109.416 1171.38 109.368C1171.44 109.308 1171.53 109.278 1171.65 109.278H1172.51C1172.63 109.278 1172.73 109.32 1172.82 109.404C1172.9 109.476 1172.94 109.572 1172.93 109.692C1172.9 110.136 1172.74 110.592 1172.44 111.06C1172.15 111.516 1171.71 111.9 1171.11 112.212C1170.52 112.524 1169.79 112.68 1168.91 112.68ZM1187.29 111.978C1187.35 112.05 1187.38 112.128 1187.38 112.212C1187.38 112.296 1187.34 112.368 1187.27 112.428C1187.21 112.476 1187.13 112.5 1187.02 112.5H1185.92C1185.73 112.5 1185.57 112.41 1185.45 112.23L1182.84 108.468H1181.15V112.086C1181.15 112.206 1181.11 112.308 1181.02 112.392C1180.95 112.464 1180.86 112.5 1180.74 112.5H1179.89C1179.77 112.5 1179.67 112.464 1179.58 112.392C1179.51 112.308 1179.48 112.206 1179.48 112.086V103.554C1179.48 103.434 1179.51 103.338 1179.58 103.266C1179.67 103.182 1179.77 103.14 1179.89 103.14H1180.74C1180.86 103.14 1180.95 103.182 1181.02 103.266C1181.11 103.338 1181.15 103.434 1181.15 103.554V107.01H1182.81L1185.22 103.41C1185.36 103.23 1185.52 103.14 1185.7 103.14H1186.64C1186.75 103.14 1186.84 103.17 1186.91 103.23C1186.98 103.278 1187.02 103.344 1187.02 103.428C1187.02 103.488 1186.99 103.56 1186.93 103.644L1184.25 107.622L1187.29 111.978ZM1189.54 112.5C1189.42 112.5 1189.32 112.464 1189.23 112.392C1189.16 112.308 1189.13 112.206 1189.13 112.086V103.554C1189.13 103.434 1189.16 103.338 1189.23 103.266C1189.32 103.182 1189.42 103.14 1189.54 103.14H1193.28C1194.39 103.14 1195.23 103.368 1195.8 103.824C1196.39 104.268 1196.69 104.88 1196.69 105.66C1196.69 106.176 1196.59 106.578 1196.4 106.866C1196.21 107.142 1195.91 107.382 1195.52 107.586C1195.95 107.766 1196.28 108.066 1196.52 108.486C1196.78 108.906 1196.9 109.356 1196.9 109.836C1196.9 110.7 1196.6 111.36 1195.98 111.816C1195.38 112.272 1194.53 112.5 1193.43 112.5H1189.54ZM1193.18 107.118C1193.76 107.118 1194.23 106.992 1194.56 106.74C1194.9 106.488 1195.07 106.134 1195.07 105.678C1195.07 105.234 1194.9 104.922 1194.58 104.742C1194.26 104.55 1193.79 104.454 1193.18 104.454H1190.78V107.118H1193.18ZM1193.28 111.186C1193.88 111.186 1194.35 111.072 1194.69 110.844C1195.04 110.616 1195.21 110.28 1195.21 109.836C1195.21 109.356 1195.05 109.008 1194.74 108.792C1194.43 108.564 1193.94 108.45 1193.28 108.45H1190.78V111.186H1193.28ZM1201.83 112.68C1201.24 112.68 1200.69 112.56 1200.19 112.32C1199.68 112.08 1199.28 111.756 1198.98 111.348C1198.69 110.928 1198.55 110.466 1198.55 109.962C1198.55 109.17 1198.87 108.522 1199.52 108.018C1200.18 107.502 1201.07 107.166 1202.19 107.01L1204.87 106.632V106.11C1204.87 104.886 1204.17 104.274 1202.76 104.274C1202.23 104.274 1201.8 104.388 1201.47 104.616C1201.13 104.832 1200.88 105.09 1200.71 105.39C1200.67 105.498 1200.63 105.576 1200.57 105.624C1200.52 105.672 1200.45 105.696 1200.35 105.696H1199.58C1199.47 105.696 1199.37 105.66 1199.29 105.588C1199.22 105.504 1199.18 105.408 1199.18 105.3C1199.19 105.012 1199.32 104.688 1199.58 104.328C1199.84 103.956 1200.24 103.638 1200.78 103.374C1201.32 103.098 1201.99 102.96 1202.78 102.96C1204.12 102.96 1205.09 103.278 1205.68 103.914C1206.27 104.538 1206.56 105.318 1206.56 106.254V112.086C1206.56 112.206 1206.52 112.308 1206.43 112.392C1206.36 112.464 1206.27 112.5 1206.15 112.5H1205.32C1205.2 112.5 1205.1 112.464 1205.01 112.392C1204.94 112.308 1204.9 112.206 1204.9 112.086V111.312C1204.64 111.696 1204.26 112.02 1203.75 112.284C1203.25 112.548 1202.61 112.68 1201.83 112.68ZM1202.2 111.33C1202.98 111.33 1203.62 111.078 1204.11 110.574C1204.62 110.058 1204.87 109.32 1204.87 108.36V107.856L1202.78 108.162C1201.93 108.282 1201.29 108.486 1200.85 108.774C1200.42 109.05 1200.21 109.404 1200.21 109.836C1200.21 110.316 1200.4 110.688 1200.8 110.952C1201.2 111.204 1201.66 111.33 1202.2 111.33ZM1209.58 115.92C1209.46 115.92 1209.36 115.878 1209.27 115.794C1209.2 115.722 1209.17 115.626 1209.17 115.506V103.554C1209.17 103.434 1209.2 103.338 1209.27 103.266C1209.36 103.182 1209.46 103.14 1209.58 103.14H1210.41C1210.53 103.14 1210.62 103.182 1210.7 103.266C1210.78 103.338 1210.82 103.434 1210.82 103.554V104.346C1211.49 103.422 1212.48 102.96 1213.77 102.96C1215.03 102.96 1215.98 103.356 1216.6 104.148C1217.24 104.94 1217.58 105.96 1217.63 107.208C1217.64 107.34 1217.64 107.544 1217.64 107.82C1217.64 108.096 1217.64 108.3 1217.63 108.432C1217.58 109.668 1217.24 110.688 1216.6 111.492C1215.96 112.284 1215.02 112.68 1213.77 112.68C1212.53 112.68 1211.55 112.23 1210.86 111.33V115.506C1210.86 115.626 1210.82 115.722 1210.75 115.794C1210.68 115.878 1210.58 115.92 1210.46 115.92H1209.58ZM1213.4 111.222C1214.25 111.222 1214.87 110.958 1215.25 110.43C1215.65 109.902 1215.86 109.206 1215.9 108.342C1215.91 108.222 1215.92 108.048 1215.92 107.82C1215.92 105.552 1215.08 104.418 1213.4 104.418C1212.57 104.418 1211.94 104.694 1211.52 105.246C1211.12 105.786 1210.89 106.434 1210.86 107.19L1210.84 107.874L1210.86 108.576C1210.88 109.284 1211.11 109.902 1211.54 110.43C1211.97 110.958 1212.59 111.222 1213.4 111.222ZM1222.73 112.5C1222.61 112.5 1222.51 112.464 1222.43 112.392C1222.35 112.308 1222.32 112.206 1222.32 112.086V104.58H1219.19C1219.07 104.58 1218.96 104.544 1218.88 104.472C1218.81 104.388 1218.77 104.286 1218.77 104.166V103.554C1218.77 103.434 1218.81 103.338 1218.88 103.266C1218.96 103.182 1219.07 103.14 1219.19 103.14H1227.11C1227.23 103.14 1227.32 103.182 1227.39 103.266C1227.48 103.338 1227.52 103.434 1227.52 103.554V104.166C1227.52 104.286 1227.48 104.388 1227.39 104.472C1227.32 104.544 1227.23 104.58 1227.11 104.58H1223.97V112.086C1223.97 112.206 1223.94 112.308 1223.87 112.392C1223.79 112.464 1223.7 112.5 1223.58 112.5H1222.73ZM1231.69 112.68C1231.1 112.68 1230.56 112.56 1230.05 112.32C1229.55 112.08 1229.15 111.756 1228.85 111.348C1228.56 110.928 1228.42 110.466 1228.42 109.962C1228.42 109.17 1228.74 108.522 1229.39 108.018C1230.05 107.502 1230.94 107.166 1232.05 107.01L1234.73 106.632V106.11C1234.73 104.886 1234.03 104.274 1232.63 104.274C1232.1 104.274 1231.67 104.388 1231.33 104.616C1231 104.832 1230.74 105.09 1230.58 105.39C1230.54 105.498 1230.49 105.576 1230.43 105.624C1230.38 105.672 1230.31 105.696 1230.22 105.696H1229.44C1229.33 105.696 1229.24 105.66 1229.15 105.588C1229.08 105.504 1229.05 105.408 1229.05 105.3C1229.06 105.012 1229.19 104.688 1229.44 104.328C1229.71 103.956 1230.11 103.638 1230.65 103.374C1231.19 103.098 1231.85 102.96 1232.65 102.96C1233.99 102.96 1234.96 103.278 1235.54 103.914C1236.13 104.538 1236.43 105.318 1236.43 106.254V112.086C1236.43 112.206 1236.38 112.308 1236.3 112.392C1236.23 112.464 1236.13 112.5 1236.01 112.5H1235.18C1235.06 112.5 1234.96 112.464 1234.88 112.392C1234.81 112.308 1234.77 112.206 1234.77 112.086V111.312C1234.51 111.696 1234.12 112.02 1233.62 112.284C1233.11 112.548 1232.47 112.68 1231.69 112.68ZM1232.07 111.33C1232.85 111.33 1233.49 111.078 1233.98 110.574C1234.48 110.058 1234.73 109.32 1234.73 108.36V107.856L1232.65 108.162C1231.79 108.282 1231.15 108.486 1230.72 108.774C1230.29 109.05 1230.07 109.404 1230.07 109.836C1230.07 110.316 1230.27 110.688 1230.67 110.952C1231.06 111.204 1231.53 111.33 1232.07 111.33ZM1238.56 112.5C1238.44 112.5 1238.34 112.458 1238.26 112.374C1238.17 112.29 1238.13 112.188 1238.13 112.068V111.402C1238.13 111.282 1238.17 111.186 1238.24 111.114C1238.31 111.042 1238.4 111.006 1238.51 111.006C1239.08 110.982 1239.51 110.574 1239.79 109.782C1240.07 108.978 1240.22 107.67 1240.22 105.858V103.554C1240.22 103.434 1240.25 103.338 1240.33 103.266C1240.41 103.182 1240.51 103.14 1240.63 103.14H1246.36C1246.48 103.14 1246.57 103.182 1246.64 103.266C1246.73 103.338 1246.77 103.434 1246.77 103.554V112.086C1246.77 112.206 1246.73 112.308 1246.64 112.392C1246.57 112.464 1246.48 112.5 1246.36 112.5H1245.49C1245.37 112.5 1245.28 112.464 1245.2 112.392C1245.13 112.308 1245.1 112.206 1245.1 112.086V104.58H1241.86V106.056C1241.86 108.348 1241.59 109.998 1241.06 111.006C1240.54 112.002 1239.7 112.5 1238.56 112.5Z" fill="#333333"/>
<!-- ///   ///
<circle cx="1310" cy="451" r="20" fill="white" fill-opacity="0.2"/>
<circle cx="1310" cy="451" r="20" fill="#699BF7"/>
<path d="M1307.33 453.175C1307.89 453.175 1308.33 452.727 1308.33 452.175C1308.33 451.623 1307.89 451.175 1307.33 451.175C1306.78 451.175 1306.33 451.623 1306.33 452.175C1306.33 452.727 1306.78 453.175 1307.33 453.175Z" fill="white"/>
<path d="M1316.85 450.483C1316.93 449.827 1317 449.08 1317 448.566C1317 444.881 1312.71 443.508 1310 443.508C1308.24 443.508 1306.98 444.45 1306.55 444.816C1305.22 444.892 1303 445.741 1303 448.566C1303 449.087 1303.07 449.831 1303.14 450.484C1302.47 450.76 1302 451.413 1302 452.174C1302 453.137 1302.75 453.92 1303.69 453.994C1304.6 456.616 1307.08 458.508 1310 458.508C1312.92 458.508 1315.4 456.616 1316.31 453.994C1317.25 453.92 1318 453.137 1318 452.174C1318 451.412 1317.53 450.759 1316.85 450.483ZM1315.45 453.392C1315.45 453.394 1315.45 453.394 1315.45 453.396V453.398C1314.76 455.768 1312.58 457.508 1310 457.508C1307.18 457.508 1304.85 455.439 1304.41 452.74L1305.07 450.413C1305.67 450.224 1307 449.69 1307.58 448.563C1308.48 449.41 1310.48 450.45 1314.96 450.506L1315.59 452.737C1315.56 452.96 1315.51 453.178 1315.45 453.392Z" fill="white"/>
<path d="M1312.67 453.175C1313.22 453.175 1313.67 452.727 1313.67 452.175C1313.67 451.623 1313.22 451.175 1312.67 451.175C1312.11 451.175 1311.67 451.623 1311.67 452.175C1311.67 452.727 1312.11 453.175 1312.67 453.175Z" fill="white"/>
<path d="M1311.32 454.648C1310.59 455.352 1309.41 455.352 1308.68 454.648C1308.48 454.458 1308.17 454.462 1307.97 454.662C1307.78 454.86 1307.79 455.176 1307.99 455.369C1308.54 455.905 1309.27 456.172 1310 456.172C1310.73 456.172 1311.46 455.905 1312.01 455.369C1312.21 455.177 1312.22 454.86 1312.03 454.662C1311.84 454.462 1311.52 454.458 1311.32 454.648Z" fill="white"/>
<rect x="1340" y="434" width="117" height="34" rx="10" fill="white"/>
<path d="M1350.74 458.224C1350.63 458.224 1350.54 458.192 1350.46 458.128C1350.4 458.064 1350.37 457.973 1350.37 457.856V454.928C1350.37 454.821 1350.4 454.736 1350.46 454.672C1350.54 454.597 1350.63 454.56 1350.74 454.56H1351.07C1352.11 454.56 1352.62 452.576 1352.62 448.608V445.168C1352.62 445.061 1352.66 444.976 1352.72 444.912C1352.79 444.837 1352.89 444.8 1352.99 444.8H1359.23C1359.35 444.8 1359.44 444.837 1359.5 444.912C1359.58 444.976 1359.62 445.067 1359.62 445.184V454.56H1360.4C1360.51 454.56 1360.6 454.597 1360.67 454.672C1360.75 454.736 1360.78 454.821 1360.78 454.928V457.856C1360.78 457.963 1360.75 458.048 1360.67 458.112C1360.61 458.187 1360.52 458.224 1360.4 458.224H1359.58C1359.48 458.224 1359.39 458.192 1359.31 458.128C1359.25 458.064 1359.22 457.973 1359.22 457.856V456H1351.94V457.856C1351.94 457.963 1351.9 458.048 1351.82 458.112C1351.76 458.187 1351.67 458.224 1351.55 458.224H1350.74ZM1358.05 454.56V446.24H1354.16V448.816C1354.16 450.32 1354.07 451.536 1353.9 452.464C1353.73 453.392 1353.47 454.091 1353.12 454.56H1358.05ZM1365.84 456.16C1364.74 456.16 1363.86 455.824 1363.2 455.152C1362.55 454.469 1362.19 453.541 1362.13 452.368L1362.11 451.824L1362.13 451.296C1362.2 450.144 1362.57 449.227 1363.22 448.544C1363.88 447.861 1364.75 447.52 1365.82 447.52C1367.01 447.52 1367.93 447.899 1368.58 448.656C1369.23 449.403 1369.55 450.416 1369.55 451.696V451.968C1369.55 452.075 1369.51 452.165 1369.44 452.24C1369.38 452.304 1369.29 452.336 1369.18 452.336H1363.65V452.48C1363.68 453.173 1363.89 453.765 1364.27 454.256C1364.67 454.736 1365.18 454.976 1365.82 454.976C1366.31 454.976 1366.71 454.88 1367.02 454.688C1367.34 454.485 1367.58 454.277 1367.73 454.064C1367.82 453.936 1367.89 453.861 1367.94 453.84C1367.99 453.808 1368.08 453.792 1368.21 453.792H1368.99C1369.09 453.792 1369.17 453.819 1369.23 453.872C1369.3 453.925 1369.33 454 1369.33 454.096C1369.33 454.331 1369.18 454.613 1368.88 454.944C1368.59 455.275 1368.18 455.563 1367.65 455.808C1367.13 456.043 1366.52 456.16 1365.84 456.16ZM1368.03 451.232V451.184C1368.03 450.448 1367.83 449.851 1367.42 449.392C1367.03 448.923 1366.5 448.688 1365.82 448.688C1365.15 448.688 1364.62 448.923 1364.22 449.392C1363.84 449.851 1363.65 450.448 1363.65 451.184V451.232H1368.03ZM1374.01 456C1373.9 456 1373.81 455.968 1373.74 455.904C1373.67 455.829 1373.64 455.739 1373.64 455.632V448.96H1370.86C1370.75 448.96 1370.66 448.928 1370.59 448.864C1370.52 448.789 1370.49 448.699 1370.49 448.592V448.048C1370.49 447.941 1370.52 447.856 1370.59 447.792C1370.66 447.717 1370.75 447.68 1370.86 447.68H1377.9C1378 447.68 1378.09 447.717 1378.15 447.792C1378.23 447.856 1378.27 447.941 1378.27 448.048V448.592C1378.27 448.699 1378.23 448.789 1378.15 448.864C1378.09 448.928 1378 448.96 1377.9 448.96H1375.11V455.632C1375.11 455.739 1375.08 455.829 1375.02 455.904C1374.95 455.968 1374.87 456 1374.76 456H1374.01ZM1383.01 456.16C1381.87 456.16 1380.98 455.84 1380.32 455.2C1379.68 454.549 1379.34 453.643 1379.3 452.48L1379.28 451.84L1379.3 451.2C1379.34 450.037 1379.68 449.136 1380.32 448.496C1380.98 447.845 1381.87 447.52 1383.01 447.52C1383.78 447.52 1384.43 447.659 1384.96 447.936C1385.5 448.213 1385.89 448.555 1386.15 448.96C1386.42 449.365 1386.56 449.771 1386.58 450.176C1386.59 450.283 1386.56 450.368 1386.48 450.432C1386.41 450.496 1386.32 450.528 1386.21 450.528H1385.44C1385.34 450.528 1385.26 450.507 1385.2 450.464C1385.15 450.421 1385.1 450.336 1385.04 450.208C1384.86 449.696 1384.61 449.333 1384.28 449.12C1383.95 448.896 1383.53 448.784 1383.03 448.784C1382.37 448.784 1381.84 448.992 1381.44 449.408C1381.06 449.813 1380.85 450.437 1380.82 451.28L1380.8 451.856L1380.82 452.4C1380.85 453.253 1381.06 453.883 1381.44 454.288C1381.83 454.693 1382.36 454.896 1383.03 454.896C1383.53 454.896 1383.95 454.789 1384.28 454.576C1384.61 454.352 1384.86 453.984 1385.04 453.472C1385.1 453.344 1385.15 453.259 1385.2 453.216C1385.26 453.163 1385.34 453.136 1385.44 453.136H1386.21C1386.32 453.136 1386.41 453.173 1386.48 453.248C1386.56 453.312 1386.59 453.397 1386.58 453.504C1386.56 453.899 1386.42 454.304 1386.15 454.72C1385.89 455.125 1385.5 455.467 1384.96 455.744C1384.44 456.021 1383.79 456.16 1383.01 456.16ZM1395.42 455.536C1395.48 455.6 1395.5 455.669 1395.5 455.744C1395.5 455.819 1395.47 455.883 1395.41 455.936C1395.36 455.979 1395.28 456 1395.18 456H1394.21C1394.04 456 1393.9 455.92 1393.79 455.76L1391.47 452.416H1389.97V455.632C1389.97 455.739 1389.93 455.829 1389.86 455.904C1389.79 455.968 1389.71 456 1389.6 456H1388.85C1388.74 456 1388.65 455.968 1388.58 455.904C1388.51 455.829 1388.48 455.739 1388.48 455.632V448.048C1388.48 447.941 1388.51 447.856 1388.58 447.792C1388.65 447.717 1388.74 447.68 1388.85 447.68H1389.6C1389.71 447.68 1389.79 447.717 1389.86 447.792C1389.93 447.856 1389.97 447.941 1389.97 448.048V451.12H1391.44L1393.58 447.92C1393.71 447.76 1393.86 447.68 1394.02 447.68H1394.85C1394.94 447.68 1395.02 447.707 1395.09 447.76C1395.15 447.803 1395.18 447.861 1395.18 447.936C1395.18 447.989 1395.16 448.053 1395.1 448.128L1392.72 451.664L1395.42 455.536ZM1404.13 447.68C1404.22 447.68 1404.29 447.712 1404.36 447.776C1404.43 447.84 1404.47 447.915 1404.47 448V455.632C1404.47 455.739 1404.43 455.829 1404.36 455.904C1404.29 455.968 1404.21 456 1404.1 456H1403.35C1403.24 456 1403.15 455.968 1403.08 455.904C1403.01 455.829 1402.98 455.739 1402.98 455.632V449.824L1398.55 455.76C1398.43 455.92 1398.29 456 1398.13 456H1397.41C1397.32 456 1397.23 455.968 1397.16 455.904C1397.09 455.829 1397.06 455.749 1397.06 455.664V448.048C1397.06 447.941 1397.09 447.856 1397.16 447.792C1397.23 447.717 1397.32 447.68 1397.43 447.68H1398.2C1398.3 447.68 1398.39 447.717 1398.45 447.792C1398.53 447.856 1398.56 447.941 1398.56 448.048V453.824L1402.98 447.92C1403.1 447.76 1403.24 447.68 1403.4 447.68H1404.13ZM1413.88 447.68C1413.97 447.68 1414.04 447.712 1414.11 447.776C1414.18 447.84 1414.22 447.915 1414.22 448V455.632C1414.22 455.739 1414.18 455.829 1414.11 455.904C1414.04 455.968 1413.96 456 1413.85 456H1413.1C1412.99 456 1412.9 455.968 1412.83 455.904C1412.76 455.829 1412.73 455.739 1412.73 455.632V449.824L1408.3 455.76C1408.18 455.92 1408.04 456 1407.88 456H1407.16C1407.07 456 1406.98 455.968 1406.91 455.904C1406.84 455.829 1406.81 455.749 1406.81 455.664V448.048C1406.81 447.941 1406.84 447.856 1406.91 447.792C1406.98 447.717 1407.07 447.68 1407.18 447.68H1407.95C1408.05 447.68 1408.14 447.717 1408.2 447.792C1408.28 447.856 1408.31 447.941 1408.31 448.048V453.824L1412.73 447.92C1412.85 447.76 1412.99 447.68 1413.15 447.68H1413.88ZM1410.55 446.576C1409.7 446.576 1409.09 446.389 1408.71 446.016C1408.34 445.643 1408.15 445.163 1408.15 444.576C1408.15 444.491 1408.18 444.421 1408.23 444.368C1408.29 444.304 1408.36 444.272 1408.46 444.272H1409C1409.1 444.272 1409.17 444.304 1409.23 444.368C1409.28 444.421 1409.31 444.491 1409.31 444.576C1409.31 445.248 1409.72 445.584 1410.55 445.584C1411.39 445.584 1411.8 445.248 1411.8 444.576C1411.8 444.491 1411.83 444.421 1411.88 444.368C1411.93 444.304 1412.01 444.272 1412.11 444.272H1412.67C1412.76 444.272 1412.84 444.304 1412.89 444.368C1412.94 444.421 1412.97 444.491 1412.97 444.576C1412.97 445.152 1412.78 445.632 1412.39 446.016C1412.02 446.389 1411.41 446.576 1410.55 446.576ZM1423.84 456.16C1422.7 456.16 1421.8 455.84 1421.15 455.2C1420.51 454.549 1420.17 453.643 1420.13 452.48L1420.11 451.84L1420.13 451.2C1420.17 450.037 1420.51 449.136 1421.15 448.496C1421.8 447.845 1422.7 447.52 1423.84 447.52C1424.61 447.52 1425.26 447.659 1425.79 447.936C1426.33 448.213 1426.72 448.555 1426.98 448.96C1427.24 449.365 1427.39 449.771 1427.41 450.176C1427.42 450.283 1427.39 450.368 1427.31 450.432C1427.24 450.496 1427.15 450.528 1427.04 450.528H1426.27C1426.17 450.528 1426.09 450.507 1426.03 450.464C1425.98 450.421 1425.93 450.336 1425.87 450.208C1425.69 449.696 1425.44 449.333 1425.1 449.12C1424.77 448.896 1424.36 448.784 1423.86 448.784C1423.2 448.784 1422.67 448.992 1422.27 449.408C1421.89 449.813 1421.68 450.437 1421.65 451.28L1421.63 451.856L1421.65 452.4C1421.68 453.253 1421.89 453.883 1422.27 454.288C1422.66 454.693 1423.18 454.896 1423.86 454.896C1424.36 454.896 1424.77 454.789 1425.1 454.576C1425.44 454.352 1425.69 453.984 1425.87 453.472C1425.93 453.344 1425.98 453.259 1426.03 453.216C1426.09 453.163 1426.17 453.136 1426.27 453.136H1427.04C1427.15 453.136 1427.24 453.173 1427.31 453.248C1427.39 453.312 1427.42 453.397 1427.41 453.504C1427.39 453.899 1427.24 454.304 1426.98 454.72C1426.72 455.125 1426.33 455.467 1425.79 455.744C1425.27 456.021 1424.62 456.16 1423.84 456.16ZM1431.63 456.16C1431.11 456.16 1430.62 456.053 1430.17 455.84C1429.73 455.627 1429.37 455.339 1429.1 454.976C1428.85 454.603 1428.72 454.192 1428.72 453.744C1428.72 453.04 1429.01 452.464 1429.58 452.016C1430.17 451.557 1430.96 451.259 1431.95 451.12L1434.33 450.784V450.32C1434.33 449.232 1433.71 448.688 1432.46 448.688C1431.99 448.688 1431.61 448.789 1431.31 448.992C1431.01 449.184 1430.79 449.413 1430.64 449.68C1430.61 449.776 1430.56 449.845 1430.51 449.888C1430.47 449.931 1430.4 449.952 1430.32 449.952H1429.63C1429.53 449.952 1429.45 449.92 1429.37 449.856C1429.31 449.781 1429.28 449.696 1429.28 449.6C1429.29 449.344 1429.41 449.056 1429.63 448.736C1429.86 448.405 1430.22 448.123 1430.7 447.888C1431.18 447.643 1431.77 447.52 1432.48 447.52C1433.67 447.52 1434.53 447.803 1435.05 448.368C1435.58 448.923 1435.84 449.616 1435.84 450.448V455.632C1435.84 455.739 1435.8 455.829 1435.73 455.904C1435.66 455.968 1435.58 456 1435.47 456H1434.73C1434.63 456 1434.54 455.968 1434.46 455.904C1434.4 455.829 1434.37 455.739 1434.37 455.632V454.944C1434.13 455.285 1433.79 455.573 1433.34 455.808C1432.89 456.043 1432.32 456.16 1431.63 456.16ZM1431.97 454.96C1432.66 454.96 1433.22 454.736 1433.66 454.288C1434.11 453.829 1434.33 453.173 1434.33 452.32V451.872L1432.48 452.144C1431.72 452.251 1431.15 452.432 1430.77 452.688C1430.38 452.933 1430.19 453.248 1430.19 453.632C1430.19 454.059 1430.37 454.389 1430.72 454.624C1431.07 454.848 1431.49 454.96 1431.97 454.96ZM1437.66 457.76C1437.55 457.76 1437.46 457.723 1437.39 457.648C1437.32 457.584 1437.29 457.499 1437.29 457.392V455.088C1437.29 454.981 1437.32 454.896 1437.39 454.832C1437.46 454.757 1437.55 454.72 1437.66 454.72H1437.74C1438.19 454.709 1438.52 454.336 1438.75 453.6C1438.98 452.864 1439.1 451.696 1439.1 450.096V448.048C1439.1 447.941 1439.13 447.856 1439.19 447.792C1439.27 447.717 1439.36 447.68 1439.47 447.68H1444.57C1444.68 447.68 1444.76 447.717 1444.83 447.792C1444.9 447.856 1444.94 447.941 1444.94 448.048V454.688H1445.69C1445.8 454.688 1445.88 454.725 1445.95 454.8C1446.02 454.864 1446.06 454.949 1446.06 455.056V457.392C1446.06 457.499 1446.02 457.584 1445.95 457.648C1445.88 457.723 1445.8 457.76 1445.69 457.76H1444.94C1444.83 457.76 1444.74 457.723 1444.67 457.648C1444.6 457.584 1444.57 457.499 1444.57 457.392V456H1438.78V457.392C1438.78 457.499 1438.74 457.584 1438.67 457.648C1438.6 457.723 1438.52 457.76 1438.41 457.76H1437.66ZM1443.45 454.688V448.96H1440.55V450.272C1440.55 452.405 1440.25 453.888 1439.64 454.72L1443.45 454.688Z" fill="#333333"/>
///  ///
<circle cx="606" cy="658" r="20" fill="white" fill-opacity="0.2"/>
<circle cx="606" cy="658" r="20" fill="#699BF7"/>
<path d="M606 661.69L600 659V662.551L606 665L612 662.551V659L606 661.69Z" fill="white"/>
<path d="M615 655.705L606 651L597 655.705L606 660.41L612.881 656.812V661H613.937V656.26L615 655.705Z" fill="white"/>
<rect x="636" y="641" width="71" height="34" rx="10" fill="white"/>
<path d="M647.76 663C647.653 663 647.563 662.968 647.488 662.904C647.424 662.829 647.392 662.739 647.392 662.632V652.168C647.392 652.051 647.424 651.96 647.488 651.896C647.563 651.832 647.653 651.8 647.76 651.8H648.576C648.683 651.8 648.773 651.837 648.848 651.912C648.923 651.976 648.96 652.061 648.96 652.168V661.56H652.88V652.168C652.88 652.061 652.912 651.976 652.976 651.912C653.051 651.837 653.141 651.8 653.248 651.8H654.064C654.171 651.8 654.261 651.837 654.336 651.912C654.411 651.976 654.448 652.061 654.448 652.168V661.56H658.368V652.168C658.368 652.061 658.4 651.976 658.464 651.912C658.539 651.837 658.629 651.8 658.736 651.8H659.552C659.669 651.8 659.76 651.837 659.824 651.912C659.899 651.976 659.936 652.061 659.936 652.168V662.632C659.936 662.739 659.899 662.829 659.824 662.904C659.76 662.968 659.669 663 659.552 663H647.76ZM669.456 662.536C669.509 662.6 669.536 662.669 669.536 662.744C669.536 662.819 669.504 662.883 669.44 662.936C669.387 662.979 669.312 663 669.216 663H668.24C668.069 663 667.931 662.92 667.824 662.76L665.504 659.416H664V662.632C664 662.739 663.963 662.829 663.888 662.904C663.824 662.968 663.739 663 663.632 663H662.88C662.773 663 662.683 662.968 662.608 662.904C662.544 662.829 662.512 662.739 662.512 662.632V655.048C662.512 654.941 662.544 654.856 662.608 654.792C662.683 654.717 662.773 654.68 662.88 654.68H663.632C663.739 654.68 663.824 654.717 663.888 654.792C663.963 654.856 664 654.941 664 655.048V658.12H665.472L667.616 654.92C667.744 654.76 667.888 654.68 668.048 654.68H668.88C668.976 654.68 669.056 654.707 669.12 654.76C669.184 654.803 669.216 654.861 669.216 654.936C669.216 654.989 669.189 655.053 669.136 655.128L666.752 658.664L669.456 662.536ZM674.108 663.16C672.934 663.16 672.022 662.829 671.372 662.168C670.732 661.507 670.39 660.627 670.348 659.528L670.332 658.84L670.348 658.152C670.39 657.064 670.737 656.189 671.388 655.528C672.038 654.856 672.945 654.52 674.108 654.52C675.27 654.52 676.177 654.856 676.828 655.528C677.478 656.189 677.825 657.064 677.868 658.152C677.878 658.269 677.884 658.499 677.884 658.84C677.884 659.181 677.878 659.411 677.868 659.528C677.825 660.627 677.478 661.507 676.828 662.168C676.188 662.829 675.281 663.16 674.108 663.16ZM674.108 661.928C674.78 661.928 675.308 661.715 675.692 661.288C676.086 660.861 676.3 660.248 676.332 659.448C676.342 659.341 676.348 659.139 676.348 658.84C676.348 658.541 676.342 658.339 676.332 658.232C676.3 657.432 676.086 656.819 675.692 656.392C675.308 655.965 674.78 655.752 674.108 655.752C673.436 655.752 672.902 655.965 672.508 656.392C672.113 656.819 671.905 657.432 671.884 658.232L671.868 658.84L671.884 659.448C671.905 660.248 672.113 660.861 672.508 661.288C672.902 661.715 673.436 661.928 674.108 661.928ZM679.347 663C679.24 663 679.149 662.963 679.075 662.888C679 662.813 678.963 662.723 678.963 662.616V662.024C678.963 661.917 678.995 661.832 679.059 661.768C679.123 661.704 679.203 661.672 679.299 661.672C679.811 661.651 680.189 661.288 680.435 660.584C680.691 659.869 680.819 658.707 680.819 657.096V655.048C680.819 654.941 680.851 654.856 680.914 654.792C680.989 654.717 681.08 654.68 681.187 654.68H686.275C686.381 654.68 686.467 654.717 686.531 654.792C686.605 654.856 686.642 654.941 686.642 655.048V662.632C686.642 662.739 686.605 662.829 686.531 662.904C686.467 662.968 686.381 663 686.275 663H685.507C685.4 663 685.315 662.968 685.251 662.904C685.187 662.829 685.155 662.739 685.155 662.632V655.96H682.275V657.272C682.275 659.309 682.04 660.776 681.571 661.672C681.101 662.557 680.36 663 679.347 663ZM691.348 663.16C690.825 663.16 690.34 663.053 689.892 662.84C689.444 662.627 689.086 662.339 688.82 661.976C688.564 661.603 688.436 661.192 688.436 660.744C688.436 660.04 688.724 659.464 689.3 659.016C689.886 658.557 690.676 658.259 691.668 658.12L694.052 657.784V657.32C694.052 656.232 693.428 655.688 692.18 655.688C691.71 655.688 691.326 655.789 691.028 655.992C690.729 656.184 690.505 656.413 690.356 656.68C690.324 656.776 690.281 656.845 690.228 656.888C690.185 656.931 690.121 656.952 690.036 656.952H689.348C689.252 656.952 689.166 656.92 689.092 656.856C689.028 656.781 688.996 656.696 688.996 656.6C689.006 656.344 689.124 656.056 689.348 655.736C689.582 655.405 689.94 655.123 690.42 654.888C690.9 654.643 691.492 654.52 692.196 654.52C693.39 654.52 694.249 654.803 694.772 655.368C695.294 655.923 695.556 656.616 695.556 657.448V662.632C695.556 662.739 695.518 662.829 695.444 662.904C695.38 662.968 695.294 663 695.188 663H694.452C694.345 663 694.254 662.968 694.18 662.904C694.116 662.829 694.084 662.739 694.084 662.632V661.944C693.849 662.285 693.508 662.573 693.06 662.808C692.612 663.043 692.041 663.16 691.348 663.16ZM691.684 661.96C692.377 661.96 692.942 661.736 693.38 661.288C693.828 660.829 694.052 660.173 694.052 659.32V658.872L692.196 659.144C691.438 659.251 690.868 659.432 690.484 659.688C690.1 659.933 689.908 660.248 689.908 660.632C689.908 661.059 690.084 661.389 690.436 661.624C690.788 661.848 691.204 661.96 691.684 661.96Z" fill="#333333"/> -->
</svg>
