<svg width="200" height="36" viewBox="0 0 200 36" fill="none" xmlns="http://www.w3.org/2000/svg">
<path d="M31.8027 7.41417C31.2969 6.70348 30.7415 6.03137 30.1405 5.40311C30.0978 5.35908 30.0573 5.31534 30.0146 5.27131C28.1151 3.32479 25.8054 1.84974 23.2625 0.959473V24.5721C23.2625 25.3636 23.1102 26.1474 22.8144 26.8786C22.5185 27.6099 22.0849 28.2744 21.5382 28.834C20.9915 29.3938 20.3425 29.8378 19.6282 30.1406C18.9139 30.4434 18.1483 30.5993 17.3752 30.5993H13.8657V35.5986C15.0873 35.8653 16.3329 35.9999 17.5819 35.9999C20.8253 36.0002 24.0056 35.0822 26.771 33.3472C29.5365 31.6123 31.7792 29.1277 33.251 26.1689C34.7229 23.2101 35.3666 19.892 35.1111 16.5819C34.8555 13.2717 33.7105 10.0984 31.8027 7.41304V7.41417Z" fill="#699BF7"/>
<path d="M17.5824 2.98645e-09C14.3392 0.000316191 11.1591 0.918938 8.39405 2.65428C5.62898 4.38962 3.38656 6.87408 1.91478 9.83289C0.443009 12.7917 -0.200782 16.1096 0.0546087 19.4197C0.309998 22.7298 1.45462 25.903 3.36189 28.5886C3.86883 29.299 4.42517 29.9711 5.02661 30.5994C5.06795 30.642 5.10846 30.6846 5.1498 30.73C7.04888 32.6763 9.35789 34.1517 11.8999 35.043V11.4281C11.9006 9.82966 12.5213 8.2969 13.6256 7.16687C14.7298 6.03685 16.2273 5.40203 17.7886 5.40203H21.2981V0.40278C20.0769 0.134985 18.8314 -2.31851e-05 17.5824 2.98645e-09Z" fill="#699BF7"/>
<path d="M45.739 12.8513C45.6013 12.8513 45.4886 12.8159 45.401 12.7452C45.3134 12.6626 45.2695 12.5565 45.2695 12.4268V0.912505C45.2695 0.782799 45.3134 0.676677 45.401 0.594138C45.4886 0.511598 45.6013 0.470328 45.739 0.470328H47.2226C47.4856 0.470328 47.6734 0.582346 47.786 0.806382L51.4105 7.17373L55.0726 0.806382C55.1978 0.582346 55.3856 0.470328 55.636 0.470328H57.1008C57.2385 0.470328 57.3512 0.511598 57.4389 0.594138C57.5265 0.676677 57.5703 0.782799 57.5703 0.912505V12.4268C57.5703 12.5565 57.5265 12.6626 57.4389 12.7452C57.3512 12.8159 57.2385 12.8513 57.1008 12.8513H55.5233C55.3981 12.8513 55.2917 12.81 55.2041 12.7275C55.1164 12.6449 55.0726 12.5447 55.0726 12.4268V4.76829L52.4434 9.49074C52.2807 9.75014 52.0678 9.87985 51.8049 9.87985H51.0349C50.772 9.87985 50.5592 9.75014 50.3964 9.49074L47.7672 4.76829V12.4268C47.7672 12.5447 47.7234 12.6449 47.6358 12.7275C47.5607 12.81 47.4543 12.8513 47.3165 12.8513H45.739Z" fill="#333333"/>
<path d="M60.9422 12.8513C60.8045 12.8513 60.6918 12.81 60.6041 12.7275C60.529 12.6449 60.4915 12.5388 60.4915 12.4091V0.912505C60.4915 0.782799 60.5353 0.676677 60.6229 0.594138C60.7106 0.511598 60.8232 0.470328 60.961 0.470328H62.6511C62.7889 0.470328 62.8953 0.511598 62.9704 0.594138C63.058 0.676677 63.1019 0.782799 63.1019 0.912505V9.03087L69.2804 0.753321C69.4182 0.564659 69.5997 0.470328 69.8251 0.470328H71.3838C71.5215 0.470328 71.6279 0.511598 71.703 0.594138C71.7907 0.676677 71.8345 0.782799 71.8345 0.912505V12.4268C71.8345 12.5447 71.7907 12.6449 71.703 12.7275C71.6279 12.81 71.5215 12.8513 71.3838 12.8513H69.6936C69.5559 12.8513 69.4432 12.8159 69.3556 12.7452C69.2679 12.6626 69.2241 12.5565 69.2241 12.4268V4.46761L63.0643 12.5683C62.9892 12.6626 62.9141 12.7334 62.8389 12.7805C62.7638 12.8277 62.6574 12.8513 62.5197 12.8513H60.9422Z" fill="#333333"/>
<path d="M75.2105 12.8513C75.0853 12.8513 74.9788 12.81 74.8912 12.7275C74.8036 12.6449 74.7597 12.5447 74.7597 12.4268V0.912505C74.7597 0.782799 74.7973 0.676677 74.8724 0.594138C74.9601 0.511598 75.0727 0.470328 75.2105 0.470328H76.9194C77.0571 0.470328 77.1636 0.511598 77.2387 0.594138C77.3263 0.676677 77.3701 0.782799 77.3701 0.912505V5.47577H82.9102V0.912505C82.9102 0.782799 82.9478 0.676677 83.0229 0.594138C83.1105 0.511598 83.2232 0.470328 83.3609 0.470328H85.0511C85.1888 0.470328 85.3015 0.511598 85.3891 0.594138C85.4768 0.676677 85.5206 0.782799 85.5206 0.912505V12.4268C85.5206 12.5565 85.4768 12.6626 85.3891 12.7452C85.3015 12.8159 85.1888 12.8513 85.0511 12.8513H83.3609C83.2357 12.8513 83.1293 12.81 83.0417 12.7275C82.954 12.6449 82.9102 12.5447 82.9102 12.4268V7.68665H77.3701V12.4268C77.3701 12.5447 77.3263 12.6449 77.2387 12.7275C77.1636 12.81 77.0571 12.8513 76.9194 12.8513H75.2105Z" fill="#333333"/>
<path d="M88.8919 12.8513C88.7541 12.8513 88.6415 12.81 88.5538 12.7275C88.4787 12.6449 88.4411 12.5388 88.4411 12.4091V0.912505C88.4411 0.782799 88.485 0.676677 88.5726 0.594138C88.6602 0.511598 88.7729 0.470328 88.9106 0.470328H90.6008C90.7385 0.470328 90.845 0.511598 90.9201 0.594138C91.0077 0.676677 91.0515 0.782799 91.0515 0.912505V9.03087L97.2301 0.753321C97.3678 0.564659 97.5494 0.470328 97.7747 0.470328H99.3335C99.4712 0.470328 99.5776 0.511598 99.6527 0.594138C99.7403 0.676677 99.7842 0.782799 99.7842 0.912505V12.4268C99.7842 12.5447 99.7403 12.6449 99.6527 12.7275C99.5776 12.81 99.4712 12.8513 99.3335 12.8513H97.6433C97.5056 12.8513 97.3929 12.8159 97.3052 12.7452C97.2176 12.6626 97.1738 12.5565 97.1738 12.4268V4.46761L91.014 12.5683C90.9389 12.6626 90.8638 12.7334 90.7886 12.7805C90.7135 12.8277 90.6071 12.8513 90.4694 12.8513H88.8919Z" fill="#333333"/>
<path d="M107.78 13.0282C106.052 13.0282 104.713 12.6096 103.761 11.7724C102.822 10.9352 102.321 9.75604 102.259 8.23495C102.246 7.91659 102.24 7.39776 102.24 6.67849C102.24 5.94742 102.246 5.41681 102.259 5.08665C102.321 3.57736 102.828 2.40411 103.78 1.56693C104.744 0.717947 106.077 0.293457 107.78 0.293457C108.894 0.293457 109.865 0.476224 110.691 0.841757C111.517 1.1955 112.156 1.68484 112.606 2.30978C113.057 2.92294 113.295 3.61863 113.32 4.39686V4.43223C113.32 4.52656 113.276 4.6091 113.189 4.67985C113.113 4.73881 113.026 4.76829 112.926 4.76829H111.142C110.991 4.76829 110.879 4.73881 110.804 4.67985C110.728 4.62089 110.666 4.50888 110.616 4.3438C110.415 3.60094 110.084 3.08212 109.62 2.78733C109.157 2.48076 108.537 2.32747 107.761 2.32747C105.958 2.32747 105.019 3.27668 104.944 5.17509C104.932 5.49346 104.925 5.9828 104.925 6.64312C104.925 7.30343 104.932 7.80457 104.944 8.14652C105.019 10.0449 105.958 10.9941 107.761 10.9941C108.537 10.9941 109.157 10.8408 109.62 10.5343C110.096 10.2277 110.428 9.70888 110.616 8.97781C110.653 8.81273 110.71 8.70071 110.785 8.64176C110.872 8.5828 110.991 8.55332 111.142 8.55332H112.926C113.038 8.55332 113.132 8.58869 113.207 8.65944C113.295 8.73019 113.333 8.81863 113.32 8.92475C113.295 9.70298 113.057 10.4046 112.606 11.0295C112.156 11.6427 111.517 12.132 110.691 12.4975C109.865 12.8513 108.894 13.0282 107.78 13.0282Z" fill="#333333"/>
<path d="M118.89 12.8513C118.765 12.8513 118.658 12.81 118.571 12.7275C118.483 12.6449 118.439 12.5447 118.439 12.4268V2.64584H114.965C114.84 2.64584 114.733 2.60457 114.646 2.52203C114.558 2.43949 114.514 2.33926 114.514 2.22135V0.912505C114.514 0.782799 114.552 0.676677 114.627 0.594138C114.715 0.511598 114.827 0.470328 114.965 0.470328H124.543C124.68 0.470328 124.793 0.511598 124.881 0.594138C124.968 0.676677 125.012 0.782799 125.012 0.912505V2.22135C125.012 2.33926 124.968 2.43949 124.881 2.52203C124.793 2.60457 124.68 2.64584 124.543 2.64584H121.087V12.4268C121.087 12.5447 121.043 12.6449 120.956 12.7275C120.868 12.81 120.755 12.8513 120.618 12.8513H118.89Z" fill="#333333"/>
<path d="M127.369 12.8513C127.243 12.8513 127.137 12.81 127.049 12.7275C126.962 12.6449 126.918 12.5447 126.918 12.4268V0.912505C126.918 0.782799 126.955 0.676677 127.03 0.594138C127.118 0.511598 127.231 0.470328 127.369 0.470328H135.632C135.769 0.470328 135.882 0.511598 135.97 0.594138C136.057 0.676677 136.101 0.782799 136.101 0.912505V2.07985C136.101 2.20956 136.057 2.31568 135.97 2.39822C135.882 2.46897 135.769 2.50434 135.632 2.50434H129.453V5.63495H135.218C135.356 5.63495 135.469 5.67622 135.557 5.75876C135.644 5.82951 135.688 5.92974 135.688 6.05944V7.15604C135.688 7.28575 135.644 7.39187 135.557 7.47441C135.469 7.54516 135.356 7.58053 135.218 7.58053H129.453V10.8173H135.782C135.92 10.8173 136.032 10.8585 136.12 10.9411C136.208 11.0236 136.251 11.1297 136.251 11.2594V12.4268C136.251 12.5565 136.208 12.6626 136.12 12.7452C136.032 12.8159 135.92 12.8513 135.782 12.8513H127.369Z" fill="#333333"/>
<path d="M139.051 12.8513C138.926 12.8513 138.819 12.81 138.732 12.7275C138.644 12.6449 138.6 12.5447 138.6 12.4268V0.912505C138.6 0.782799 138.638 0.676677 138.713 0.594138C138.801 0.511598 138.913 0.470328 139.051 0.470328H144.084C145.586 0.470328 146.769 0.806382 147.633 1.47849C148.497 2.13881 148.929 3.1116 148.929 4.39686C148.929 5.68212 148.497 6.65491 147.633 7.31523C146.782 7.96375 145.599 8.28801 144.084 8.28801H141.286V12.4268C141.286 12.5447 141.242 12.6449 141.154 12.7275C141.079 12.81 140.973 12.8513 140.835 12.8513H139.051ZM143.99 6.32475C144.716 6.32475 145.273 6.16557 145.661 5.8472C146.05 5.51704 146.244 5.03359 146.244 4.39686C146.244 3.78371 146.056 3.30616 145.68 2.96421C145.305 2.61046 144.741 2.43359 143.99 2.43359H141.248V6.32475H143.99Z" fill="#333333"/>
<path d="M156.05 13.0282C154.322 13.0282 152.983 12.6096 152.031 11.7724C151.092 10.9352 150.591 9.75604 150.529 8.23495C150.516 7.91659 150.51 7.39776 150.51 6.67849C150.51 5.94742 150.516 5.41681 150.529 5.08665C150.591 3.57736 151.098 2.40411 152.05 1.56693C153.014 0.717947 154.347 0.293457 156.05 0.293457C157.164 0.293457 158.135 0.476224 158.961 0.841757C159.787 1.1955 160.426 1.68484 160.876 2.30978C161.327 2.92294 161.565 3.61863 161.59 4.39686V4.43223C161.59 4.52656 161.546 4.6091 161.459 4.67985C161.383 4.73881 161.296 4.76829 161.196 4.76829H159.412C159.261 4.76829 159.149 4.73881 159.074 4.67985C158.998 4.62089 158.936 4.50888 158.886 4.3438C158.685 3.60094 158.354 3.08212 157.89 2.78733C157.427 2.48076 156.807 2.32747 156.031 2.32747C154.228 2.32747 153.289 3.27668 153.214 5.17509C153.202 5.49346 153.195 5.9828 153.195 6.64312C153.195 7.30343 153.202 7.80457 153.214 8.14652C153.289 10.0449 154.228 10.9941 156.031 10.9941C156.807 10.9941 157.427 10.8408 157.89 10.5343C158.366 10.2277 158.698 9.70888 158.886 8.97781C158.923 8.81273 158.98 8.70071 159.055 8.64176C159.142 8.5828 159.261 8.55332 159.412 8.55332H161.196C161.308 8.55332 161.402 8.58869 161.477 8.65944C161.565 8.73019 161.603 8.81863 161.59 8.92475C161.565 9.70298 161.327 10.4046 160.876 11.0295C160.426 11.6427 159.787 12.132 158.961 12.4975C158.135 12.8513 157.164 13.0282 156.05 13.0282Z" fill="#333333"/>
<path d="M174.315 12.2499C174.353 12.2971 174.372 12.3619 174.372 12.4445C174.372 12.5506 174.328 12.6449 174.24 12.7275C174.165 12.81 174.065 12.8513 173.94 12.8513H172.005C171.855 12.8513 171.742 12.8277 171.667 12.7805C171.592 12.7216 171.517 12.6449 171.442 12.5506L168.212 7.68665H166.428V12.4268C166.428 12.5447 166.384 12.6449 166.296 12.7275C166.221 12.81 166.115 12.8513 165.977 12.8513H164.268C164.143 12.8513 164.036 12.81 163.949 12.7275C163.861 12.6449 163.817 12.5447 163.817 12.4268V0.912505C163.817 0.782799 163.855 0.676677 163.93 0.594138C164.018 0.511598 164.13 0.470328 164.268 0.470328H165.977C166.115 0.470328 166.221 0.511598 166.296 0.594138C166.384 0.676677 166.428 0.782799 166.428 0.912505V5.47577L168.08 5.49346L171.123 0.788695C171.248 0.57645 171.473 0.470328 171.799 0.470328H173.658C173.783 0.470328 173.877 0.505702 173.94 0.576451C174.015 0.647199 174.052 0.735634 174.052 0.841757C174.052 0.888922 174.027 0.95967 173.977 1.054L170.428 6.44856L174.315 12.2499Z" fill="#333333"/>
<path d="M176.849 12.8513C176.711 12.8513 176.599 12.81 176.511 12.7275C176.436 12.6449 176.398 12.5388 176.398 12.4091V0.912505C176.398 0.782799 176.442 0.676677 176.53 0.594138C176.617 0.511598 176.73 0.470328 176.868 0.470328H178.558C178.696 0.470328 178.802 0.511598 178.877 0.594138C178.965 0.676677 179.009 0.782799 179.009 0.912505V9.03087L185.187 0.753321C185.325 0.564659 185.507 0.470328 185.732 0.470328H187.291C187.428 0.470328 187.535 0.511598 187.61 0.594138C187.697 0.676677 187.741 0.782799 187.741 0.912505V12.4268C187.741 12.5447 187.697 12.6449 187.61 12.7275C187.535 12.81 187.428 12.8513 187.291 12.8513H185.6C185.463 12.8513 185.35 12.8159 185.262 12.7452C185.175 12.6626 185.131 12.5565 185.131 12.4268V4.46761L178.971 12.5683C178.896 12.6626 178.821 12.7334 178.746 12.7805C178.671 12.8277 178.564 12.8513 178.426 12.8513H176.849Z" fill="#333333"/>
<path d="M191.117 12.8513C190.992 12.8513 190.886 12.81 190.798 12.7275C190.71 12.6449 190.667 12.5447 190.667 12.4268V0.912505C190.667 0.782799 190.704 0.676677 190.779 0.594138C190.867 0.511598 190.98 0.470328 191.117 0.470328H199.38C199.518 0.470328 199.631 0.511598 199.718 0.594138C199.806 0.676677 199.85 0.782799 199.85 0.912505V2.07985C199.85 2.20956 199.806 2.31568 199.718 2.39822C199.631 2.46897 199.518 2.50434 199.38 2.50434H193.202V5.63495H198.967C199.105 5.63495 199.218 5.67622 199.305 5.75876C199.393 5.82951 199.437 5.92974 199.437 6.05944V7.15604C199.437 7.28575 199.393 7.39187 199.305 7.47441C199.218 7.54516 199.105 7.58053 198.967 7.58053H193.202V10.8173H199.531C199.668 10.8173 199.781 10.8585 199.869 10.9411C199.956 11.0236 200 11.1297 200 11.2594V12.4268C200 12.5565 199.956 12.6626 199.869 12.7452C199.781 12.8159 199.668 12.8513 199.531 12.8513H191.117Z" fill="#333333"/>
<path d="M50.7094 33.5999C49.0261 33.5999 47.7141 33.1931 46.7734 32.3795C45.8327 31.5659 45.3376 30.3573 45.2881 28.7537C45.2757 28.4117 45.2695 27.9106 45.2695 27.2503C45.2695 26.5782 45.2757 26.0711 45.2881 25.7292C45.3376 24.1609 45.8451 22.9582 46.8105 22.121C47.7759 21.2838 49.0756 20.8652 50.7094 20.8652C52.3432 20.8652 53.6428 21.2838 54.6082 22.121C55.586 22.9582 56.0997 24.1609 56.1492 25.7292C56.174 26.4131 56.1863 26.9201 56.1863 27.2503C56.1863 27.5686 56.174 28.0698 56.1492 28.7537C56.0873 30.3573 55.586 31.5659 54.6454 32.3795C53.7047 33.1931 52.3927 33.5999 50.7094 33.5999ZM50.7094 31.5659C51.5387 31.5659 52.2008 31.3301 52.6959 30.8584C53.191 30.375 53.4571 29.6439 53.4943 28.6652C53.519 27.9578 53.5314 27.4802 53.5314 27.2326C53.5314 26.9614 53.519 26.4838 53.4943 25.7999C53.4571 24.8212 53.191 24.0961 52.6959 23.6244C52.2008 23.141 51.5387 22.8992 50.7094 22.8992C49.8925 22.8992 49.2365 23.141 48.7414 23.6244C48.2463 24.0961 47.9802 24.8212 47.943 25.7999C47.9307 26.1419 47.9245 26.6194 47.9245 27.2326C47.9245 27.8339 47.9307 28.3115 47.943 28.6652C47.9802 29.6439 48.2401 30.375 48.7228 30.8584C49.2179 31.3301 49.8801 31.5659 50.7094 31.5659Z" fill="#333333"/>
<path d="M63.0244 33.5999C61.9352 33.5999 61.0131 33.4525 60.2581 33.1577C59.5155 32.8512 58.9461 32.4503 58.55 31.955C58.1663 31.448 57.9435 30.8997 57.8817 30.3101V30.2748C57.8817 30.1804 57.9188 30.1038 57.993 30.0448C58.0673 29.9859 58.1601 29.9564 58.2715 29.9564H59.9425C60.2024 29.9564 60.3819 30.0743 60.4809 30.3101C60.6294 30.6992 60.9141 31.0117 61.3349 31.2475C61.7558 31.4716 62.3004 31.5836 62.9687 31.5836C63.7485 31.5836 64.3859 31.4244 64.881 31.106C65.3885 30.7877 65.6422 30.3573 65.6422 29.8149C65.6422 29.2489 65.4195 28.8126 64.9739 28.506C64.5407 28.1877 63.928 28.0285 63.1358 28.0285H61.7991C61.6753 28.0285 61.5701 27.9872 61.4835 27.9047C61.3968 27.8222 61.3535 27.716 61.3535 27.5863V26.5605C61.3535 26.4308 61.3968 26.3246 61.4835 26.2421C61.5701 26.1596 61.6753 26.1183 61.7991 26.1183H63.0801C63.7485 26.1183 64.2745 25.9827 64.6582 25.7115C65.0543 25.4403 65.2523 25.0335 65.2523 24.4911C65.2523 24.0076 65.0419 23.6244 64.6211 23.3414C64.2126 23.0466 63.6804 22.8992 63.0244 22.8992C62.356 22.8992 61.8115 23.0113 61.3906 23.2353C60.9822 23.4475 60.7284 23.7659 60.6294 24.1904C60.5799 24.3083 60.518 24.3968 60.4438 24.4557C60.3819 24.5029 60.2828 24.5265 60.1467 24.5265H58.4201C58.3087 24.5265 58.2097 24.4911 58.123 24.4203C58.0487 24.3496 58.0178 24.2612 58.0302 24.155C58.1168 23.1999 58.5748 22.4158 59.4041 21.8026C60.2457 21.1777 61.4649 20.8652 63.0616 20.8652C64.0518 20.8652 64.9058 21.0244 65.6237 21.3428C66.3539 21.6494 66.9109 22.068 67.2946 22.5986C67.6783 23.1174 67.8701 23.6834 67.8701 24.2965C67.8701 24.8389 67.7526 25.3401 67.5174 25.7999C67.2946 26.2598 66.9233 26.6312 66.4034 26.9142C67.0471 27.2208 67.5236 27.6394 67.833 28.17C68.1424 28.6888 68.2972 29.2607 68.2972 29.8856C68.2972 30.6167 68.0806 31.2652 67.6474 31.8312C67.2142 32.3854 66.6015 32.8217 65.8093 33.1401C65.0172 33.4466 64.0889 33.5999 63.0244 33.5999Z" fill="#333333"/>
<path d="M71.0725 33.4231C70.9487 33.4231 70.8435 33.3818 70.7569 33.2992C70.6702 33.2167 70.6269 33.1165 70.6269 32.9986V21.4843C70.6269 21.3546 70.664 21.2485 70.7383 21.1659C70.8249 21.0834 70.9363 21.0421 71.0725 21.0421H79.2415C79.3777 21.0421 79.4891 21.0834 79.5757 21.1659C79.6624 21.2485 79.7057 21.3546 79.7057 21.4843V22.6516C79.7057 22.7813 79.6624 22.8875 79.5757 22.97C79.4891 23.0407 79.3777 23.0761 79.2415 23.0761H73.1333V26.2067H78.8331C78.9692 26.2067 79.0806 26.248 79.1673 26.3305C79.2539 26.4013 79.2972 26.5015 79.2972 26.6312V27.7278C79.2972 27.8575 79.2539 27.9636 79.1673 28.0462C79.0806 28.1169 78.9692 28.1523 78.8331 28.1523H73.1333V31.389H79.3901C79.5262 31.389 79.6376 31.4303 79.7242 31.5129C79.8109 31.5954 79.8542 31.7015 79.8542 31.8312V32.9986C79.8542 33.1283 79.8109 33.2344 79.7242 33.3169C79.6376 33.3877 79.5262 33.4231 79.3901 33.4231H71.0725Z" fill="#333333"/>
<path d="M82.6219 33.4231C82.4981 33.4231 82.3929 33.3818 82.3062 33.2992C82.2196 33.2167 82.1763 33.1165 82.1763 32.9986V21.4843C82.1763 21.3546 82.2134 21.2485 82.2877 21.1659C82.3743 21.0834 82.4857 21.0421 82.6219 21.0421H87.5975C89.0828 21.0421 90.2525 21.3782 91.1065 22.0503C91.9605 22.7106 92.3876 23.6834 92.3876 24.9686C92.3876 26.2539 91.9605 27.2267 91.1065 27.887C90.2648 28.5355 89.0952 28.8598 87.5975 28.8598H84.8312V32.9986C84.8312 33.1165 84.7879 33.2167 84.7012 33.2992C84.627 33.3818 84.5218 33.4231 84.3856 33.4231H82.6219ZM87.5047 26.8965C88.2226 26.8965 88.7734 26.7373 89.1571 26.419C89.5408 26.0888 89.7326 25.6054 89.7326 24.9686C89.7326 24.3555 89.5469 23.8779 89.1756 23.536C88.8043 23.1822 88.2473 23.0054 87.5047 23.0054H84.794V26.8965H87.5047Z" fill="#333333"/>
<path d="M93.6162 33.4231C93.5172 33.4231 93.4244 33.3877 93.3378 33.3169C93.2635 33.2462 93.2264 33.1578 93.2264 33.0516L93.2635 32.8924L97.7379 21.4843C97.8245 21.1895 98.0411 21.0421 98.3877 21.0421H100.411C100.733 21.0421 100.95 21.1895 101.061 21.4843L105.536 32.8924C105.548 32.9278 105.554 32.9809 105.554 33.0516C105.554 33.1578 105.517 33.2462 105.443 33.3169C105.369 33.3877 105.282 33.4231 105.183 33.4231H103.568C103.407 33.4231 103.283 33.3877 103.196 33.3169C103.11 33.2462 103.054 33.1695 103.029 33.087L102.157 30.9292H96.6425L95.7699 33.087C95.6709 33.311 95.4914 33.4231 95.2315 33.4231H93.6162ZM101.507 28.8952L99.3903 23.4299L97.2923 28.8952H101.507Z" fill="#333333"/>
</svg>
